<?xml version="1.0" encoding="UTF-8" standalone="no"?>
<!-- Created with Inkscape (http://www.inkscape.org/) -->

<svg
   width="210mm"
   height="297mm"
   viewBox="0 0 210 297"
   version="1.1"
   id="svg5009"
   inkscape:version="1.2 (dc2aeda, 2022-05-15)"
   sodipodi:docname="sillouettes.svg"
   xmlns:inkscape="http://www.inkscape.org/namespaces/inkscape"
   xmlns:sodipodi="http://sodipodi.sourceforge.net/DTD/sodipodi-0.dtd"
   xmlns="http://www.w3.org/2000/svg"
   xmlns:svg="http://www.w3.org/2000/svg">
  <sodipodi:namedview
     id="namedview5011"
     pagecolor="#ffffff"
     bordercolor="#000000"
     borderopacity="0.25"
     inkscape:showpageshadow="2"
     inkscape:pageopacity="0.0"
     inkscape:pagecheckerboard="0"
     inkscape:deskcolor="#d1d1d1"
     inkscape:document-units="mm"
     showgrid="false"
     inkscape:zoom="0.2102413"
     inkscape:cx="397.16269"
     inkscape:cy="561.25984"
     inkscape:window-width="1309"
     inkscape:window-height="430"
     inkscape:window-x="0"
     inkscape:window-y="23"
     inkscape:window-maximized="0"
     inkscape:current-layer="layer1" />
  <defs
     id="defs5006" />
  <g
     inkscape:label="Layer 1"
     inkscape:groupmode="layer"
     id="layer1">
    <path
       style="fill:#000000;stroke:#ffffff;stroke-width:0.35955;stroke-opacity:1"
       d="m 41.235649,75.244144 c 0.871789,0.07379 -0.03035,-0.54851 0.144624,-0.722116 0.07231,-0.07227 0.21643,-0.07227 0.288742,-0.144114 0.06827,-0.06829 -0.06827,-0.220475 0,-0.288743 0.0354,-0.03543 0.110237,0.03543 0.144624,0 0.05056,-0.05052 0.09608,-0.385334 0.144624,-0.433373 0.0354,-0.03543 0.110238,0.03543 0.144625,0 0.09608,-0.09612 -0.09608,-0.192655 0,-0.288743 0.0354,-0.03543 0.110237,0.03543 0.144623,0 0.06827,-0.06829 -0.06827,-0.220978 0,-0.289246 0.0354,-0.03543 0.110237,0.03543 0.144624,0 0.06827,-0.06829 -0.06827,-0.220475 0,-0.288743 0.0354,-0.03543 0.110237,0.03543 0.144624,0 0.06827,-0.06829 -0.04045,-0.202771 0,-0.289246 0.03034,-0.06069 0.113781,-0.08338 0.144624,-0.144115 0.123386,-0.246774 0.06068,-1.071935 0.144624,-1.155476 0.0354,-0.03543 0.110238,0.03543 0.144625,0 0.05056,-0.04549 0.07484,-0.583403 0.144624,-0.722162 0.105186,-0.210862 0.231095,-0.231093 0.288742,-0.288743 0.06827,-0.06829 -0.06827,-0.220978 0,-0.288743 0.0354,-0.03543 0.110237,0.03543 0.144624,0 0.06827,-0.06829 -0.04045,-0.202771 0,-0.288744 0.06979,-0.139062 0.370157,-0.803574 0.433367,-0.86658 0.0354,-0.03543 0.110237,0.03543 0.144624,0 0.07231,-0.07227 -0.07231,-0.361046 0,-0.433361 0.07231,-0.07227 0.216936,-0.07227 0.288742,-0.144126 0.06827,-0.06829 -0.06827,-0.220978 0,-0.288743 0.0354,-0.03543 0.110237,0.03543 0.144624,0 0.05056,-0.05052 0.09608,-0.385323 0.144624,-0.433361 0.0354,-0.03543 0.110238,0.03543 0.144625,0 0.06827,-0.06829 -0.06827,-0.220977 0,-0.288743 0.0354,-0.03543 0.110237,0.03543 0.144624,0 0.06827,-0.06829 -0.04046,-0.202782 0,-0.289246 0.03034,-0.06116 0.11378,-0.08338 0.144623,-0.144126 0.04046,-0.08642 -0.06827,-0.220475 0,-0.288732 0.0354,-0.03543 0.110237,0.03543 0.144624,0 0.07232,-0.07227 0.05056,-0.48293 0.144624,-0.577743 0.0354,-0.03543 0.110238,0.03543 0.144625,0 0.09608,-0.09612 -0.09608,-0.481411 0,-0.577733 0.0354,-0.03543 0.110237,0.03543 0.144624,0 0.100122,-0.100099 0.04551,-0.622086 0.144624,-0.722162 0.0354,-0.03543 0.110237,0.03543 0.144624,0 0.06827,-0.06829 -0.04045,-0.202782 0,-0.288743 0.05715,-0.113781 0.222498,-0.511288 0.288742,-0.577744 0.0354,-0.03543 0.110238,0.03543 0.144625,0 0.09457,-0.0946 0.07181,-0.505172 0.144624,-0.577732 0.0354,-0.03543 0.110237,0.03543 0.144623,0 0.07231,-0.07227 -0.07231,-0.361058 0,-0.433372 0.0354,-0.03543 0.110237,0.03543 0.144624,0 0.07231,-0.07227 -0.07231,-0.361046 0,-0.433361 0.0354,-0.03543 0.110237,0.03543 0.144624,0 0.07232,-0.07227 -0.07231,-0.361057 0,-0.433372 0.0354,-0.03543 0.110238,0.03543 0.144624,0 0.07232,-0.07227 -0.07231,-0.361046 0,-0.43336 0.0354,-0.03543 0.110238,0.03543 0.144625,0 0.146647,-0.146652 0,-1.214343 0,-1.444325 0,-0.988699 0.08698,-1.703681 -0.288742,-2.455323 -0.04551,-0.087 0.06675,-0.366613 0,-0.433361 -0.0354,-0.03543 -0.110238,0.03543 -0.144625,0 -0.09608,-0.09612 0.09608,-0.48141 0,-0.577685 -0.0354,-0.03543 -0.110237,0.03543 -0.144624,0 -0.07231,-0.07227 0.07232,-0.361058 0,-0.433372 -0.0354,-0.03543 -0.110237,0.03543 -0.144624,0 -0.168391,-0.168391 0.168391,-0.842457 0,-1.010953 -0.0354,-0.03543 -0.110238,0.03543 -0.144624,0 -0.130971,-0.13097 -0.288742,-0.692471 -0.288742,-0.86658 0,-0.417691 -0.118835,-0.671341 -0.288742,-1.011046 -0.08798,-0.17598 -0.06725,-1.078016 -0.144625,-1.155429 -0.0354,-0.03543 -0.110237,0.03543 -0.144624,0 -0.100122,-0.100099 -0.04551,-0.622087 -0.144624,-0.722162 -0.0354,-0.03543 -0.110238,0.03543 -0.144624,0 -0.06827,-0.06829 0.06827,-0.220978 0,-0.288744 -0.07232,-0.07227 -0.216937,-0.07227 -0.288743,-0.144114 -0.08191,-0.08197 -0.08698,-0.751689 -0.144624,-0.866581 -0.03034,-0.06069 -0.11378,-0.08338 -0.144624,-0.144126 -0.04551,-0.087 0.06675,-0.366612 0,-0.43336 -0.05765,-0.05765 -0.183561,-0.07835 -0.288742,-0.289246 -0.111243,-0.222498 -0.11074,-0.833113 -0.288742,-1.010953 -0.0354,-0.03543 -0.110238,0.03543 -0.144624,0 -0.06827,-0.06829 0.04045,-0.202782 0,-0.289246 -0.09052,-0.180529 -0.288744,-0.676708 -0.288744,-0.866592 0,-0.385323 0.05056,0.05063 -0.144623,-0.144115 -0.120352,-0.120352 -0.02528,-0.457636 -0.144624,-0.57779 -0.09608,-0.09612 -0.481407,0.09612 -0.577738,0 -0.09153,-0.09156 0.06018,-0.457637 0,-0.577732 -0.03034,-0.06069 -0.113781,-0.08338 -0.144624,-0.144115 -0.06018,-0.120352 0.09153,-0.485959 0,-0.577743 -0.0354,-0.03543 -0.110238,0.03543 -0.144624,0 -0.06675,-0.06677 0.04551,-0.34588 0,-0.433361 -0.03035,-0.06116 -0.113781,-0.08349 -0.144625,-0.144126 -0.04045,-0.08595 0.06827,-0.220475 0,-0.288743 -0.0354,-0.03543 -0.110237,0.03543 -0.144624,0 -0.120351,-0.120353 0.120352,-0.601751 0,-0.722104 -0.0354,-0.03543 -0.110237,0.03543 -0.144623,0 -0.05663,-0.05613 0,-0.489502 0,-0.577744 0,-0.135016 -0.287225,-0.434881 -0.144624,-0.577732 0.112763,-0.112728 0.251322,0.125404 0.288742,0.144114 0.08596,0.04046 0.220981,-0.06829 0.288742,0 0.109232,0.10922 0.0627,0.289247 0.288743,0.289247 0.05967,0 0.394935,-0.04046 0.433367,0 0.0354,0.03543 -0.0354,0.110272 0,0.144126 0.005,0.01052 0.425275,0.281154 0.433366,0.289246 0.07231,0.07227 0.07231,0.216429 0.144624,0.289246 0.12642,0.126421 0.74001,0.30695 0.866581,0.433372 0.0354,0.03543 -0.0354,0.110272 0,0.144114 0.005,0.01053 0.425276,0.281154 0.433366,0.288744 0.0885,0.08852 0.09557,0.336781 0.288744,0.43336 0.01006,0.0047 0.42477,0.280651 0.433366,0.288743 0.0354,0.03543 -0.0354,0.110273 0,0.144126 0.06827,0.06829 0.220981,-0.06829 0.288742,0 0.0354,0.03543 -0.0354,0.110273 0,0.144115 0.07231,0.07227 0.216431,0.07227 0.288743,0.144114 0.06827,0.06829 -0.06827,0.22099 0,0.288743 0.0354,0.03543 0.110238,-0.03543 0.144623,0 0.298856,0.298859 -0.456627,-0.01052 0.144625,0.289247 0.04045,0.02023 0.110237,-0.03543 0.144624,0 0.0885,0.08852 0.09557,0.336781 0.288742,0.433372 0.04551,0.02023 0.110237,-0.03543 0.144624,0 0.0354,0.03543 -0.0354,0.110272 0,0.144114 0.05056,0.05063 0.385327,0.09612 0.433366,0.144126 0.07232,0.07227 0.07232,0.216429 0.144625,0.288743 0.02528,0.02526 0.330714,0.186084 0.433366,0.288732 0.04551,0.05063 0.192663,0.09612 0.144624,0.144126 -0.06827,0.06829 -0.192663,0 -0.288742,0 -0.05056,0 0.10114,-0.02023 0.144624,0 0.210868,0.105127 0.231095,0.231093 0.288742,0.288743 0.0354,0.03543 0.110238,-0.03543 0.144625,0 0.06827,0.06829 -0.06827,0.220978 0,0.289247 0.07231,0.07227 0.216936,0.07227 0.288742,0.144114 0.0354,0.03543 -0.0354,0.110272 0,0.144126 0.07636,0.07636 0.645853,0.357 0.72216,0.43336 0.005,0.01053 0.281157,0.425281 0.288742,0.433373 0.005,0.01052 0.425276,0.281154 0.433366,0.289246 0.0354,0.03543 -0.0354,0.110272 0,0.144114 0.0354,0.03543 0.110238,-0.03543 0.144624,0 0.0354,0.03543 -0.0354,0.110273 0,0.144114 0.09557,0.09554 0.463202,0.2038 0.577738,0.433373 0.02023,0.04046 -0.0354,0.110272 0,0.144114 0.0354,0.03543 0.110238,-0.03543 0.144624,0 0.0354,0.03543 -0.0354,0.110273 0,0.144126 0.0354,0.03543 0.110238,-0.03543 0.144625,0 0.298856,0.298847 -0.456628,-0.01052 0.144624,0.289246 0.04045,0.02023 0.110237,-0.03543 0.144624,0 0.06827,0.06829 -0.06827,0.220978 0,0.288743 0.005,0.01053 0.425276,0.281154 0.433366,0.288744 0.06827,0.06829 -0.06827,0.220475 0,0.288743 0.0354,0.03543 0.110238,-0.03543 0.144625,0 0.06827,0.06829 -0.06827,0.220978 0,0.288743 0.08343,0.08338 0.494048,0.205297 0.577737,0.288744 0.05056,0.05052 0.09608,0.385322 0.144624,0.43336 0.07231,0.07227 0.216431,0.07227 0.288743,0.144114 0.05056,0.05063 0.09608,0.385334 0.144623,0.433373 0.07231,0.07227 0.216431,0.07227 0.288743,0.144114 0.07232,0.07227 0.07232,0.216429 0.144625,0.289246 0.0354,0.03543 0.110237,-0.03543 0.144623,0 0.05056,0.05063 0.09608,0.385334 0.144624,0.433372 0.0354,0.03543 0.110237,-0.03543 0.144624,0 0.07232,0.07227 0.07232,0.216429 0.144624,0.288744 0.298856,0.298858 -0.01006,-0.456632 0.288742,0.144114 0.05967,0.119347 0.05866,0.203285 0.144625,0.289246 0.07231,0.07227 0.216431,0.07227 0.288742,0.144126 0.09608,0.09612 -0.09608,0.192655 0,0.289246 0.005,0.01053 0.425276,0.281154 0.433367,0.288743 0.0354,0.03543 -0.0354,0.110273 0,0.144115 0.0354,0.03543 0.110238,-0.03543 0.144623,0 0.05056,0.05052 0.09608,0.385334 0.144625,0.433372 0.0354,0.03543 0.110237,-0.03543 0.144624,0 0.06068,0.06022 0.100625,0.345879 0.144624,0.433361 0.300373,0.601049 -0.01006,-0.15423 0.288742,0.144126 0.07231,0.07227 0.07231,0.216428 0.144624,0.289246 0.04046,0.04046 0.680087,0.16535 0.72211,0.144114 0.295316,-0.147658 0.252333,-0.34285 0.433366,-0.43336 0.08596,-0.04046 0.220476,0.06829 0.288742,0 0.0354,-0.03543 -0.0354,-0.110273 0,-0.144126 0.09457,-0.0946 0.505174,-0.07227 0.577738,-0.144115 0.05765,-0.05765 0.07838,-0.183557 0.288742,-0.288743 0.08698,-0.04549 0.366617,0.06677 0.433367,0 0.0354,-0.03543 -0.0354,-0.110273 0,-0.144114 0.04551,0 0.09608,0 0.144624,0 0.05056,0 0.110237,0.03543 0.144624,0 0.0354,-0.03543 -0.0354,-0.110273 0,-0.144127 0.298856,-0.298858 -0.01006,0.456632 0.288742,-0.144114 0.02023,-0.04046 -0.0354,-0.110272 0,-0.144114 0.06827,-0.06829 0.202778,0.04046 0.288744,0 0.16839,-0.08396 0.264975,-0.204806 0.433366,-0.288744 0.08596,-0.04046 0.220981,0.06829 0.288742,0 0.0354,-0.03543 -0.0354,-0.110272 0,-0.144126 0.0354,-0.03543 0.09608,0 0.144624,0 0.04551,0 0.110238,0.03543 0.144624,0 0.07232,-0.07227 0.07232,-0.216931 0.144625,-0.289246 0.09608,-0.09612 0.481405,0.09612 0.577788,0 0.0354,-0.03543 -0.0354,-0.110272 0,-0.144114 0.05056,-0.05063 0.385327,-0.09612 0.433366,-0.144126 0.0354,-0.03543 -0.0354,-0.110273 0,-0.144115 0.144624,-0.144114 0.577738,0 0.722109,-0.144114 0.0354,-0.03543 -0.0354,-0.110272 0,-0.144126 0.08293,-0.08291 1.172315,-0.586175 1.444319,-0.722151 0.08698,-0.04549 0.366617,0.06677 0.433367,0 0.0354,-0.03543 -0.0354,-0.110272 0,-0.144126 0.06675,-0.06677 0.34639,0.04549 0.433366,0 0.06068,-0.03029 0.08344,-0.114248 0.144624,-0.144114 0.08698,-0.04549 0.366617,0.06677 0.433367,0 0.0354,-0.03543 -0.0354,-0.110273 0,-0.144114 0.01517,-0.0152 0.995782,-0.273577 1.011003,-0.288744 0.0354,-0.03543 -0.0354,-0.110272 0,-0.144126 0.120857,-0.120855 0.730048,-0.01052 0.866581,-0.144114 0.0354,-0.03543 -0.0354,-0.110273 0,-0.144114 0.100122,-0.100099 0.622086,-0.04549 0.72216,-0.144127 0.0354,-0.03543 -0.0354,-0.110272 0,-0.144114 0.06827,-0.06829 0.220981,0.06829 0.288742,0 0.0354,-0.03543 -0.0354,-0.110272 0,-0.144114 0.06827,-0.06829 0.220981,0.06829 0.288742,0 0.0354,-0.03543 -0.0354,-0.110273 0,-0.144126 0.06827,-0.06829 0.202778,0.04046 0.288743,0 0.06068,-0.03029 0.08344,-0.114249 0.144625,-0.144115 0.362571,-0.181534 1.093226,0.03029 1.444318,-0.144114 0.113781,-0.05718 0.511292,-0.222498 0.577738,-0.289258 0.0354,-0.03543 -0.0354,-0.110272 0,-0.144114 0.136534,-0.136537 0.745775,-0.02526 0.866581,-0.144115 0.0354,-0.03543 -0.0354,-0.110272 0,-0.144126 0.06827,-0.06829 0.220982,0.06829 0.288743,0 0.0354,-0.03543 -0.0354,-0.110272 0,-0.144114 0.06827,-0.06829 0.220475,0.06829 0.288742,0 0.0354,-0.03543 -0.0354,-0.110273 0,-0.144114 0.06827,-0.06829 0.220979,0.06829 0.288745,0 0.03543,-0.03543 -0.03543,-0.110273 0,-0.144127 0.06829,-0.06829 0.20277,0.04046 0.288743,0 0.06069,-0.03029 0.08349,-0.114248 0.144617,-0.144114 0.154241,-0.07741 0.42376,0.07741 0.577744,0 0.06069,-0.03029 0.08338,-0.114248 0.144617,-0.144114 0.087,-0.04549 0.366624,0.06677 0.433372,0 0.03543,-0.03543 -0.03543,-0.110273 0,-0.144126 0.144629,-0.144115 0.722163,0.144126 0.866581,0 0.03543,-0.03543 -0.03543,-0.110273 0,-0.144115 0.06829,-0.06829 0.220978,0.06829 0.288743,0 0.03543,-0.03543 -0.03543,-0.110272 0,-0.144114 0.06829,-0.06829 0.220978,0.06829 0.288744,0 0.03543,-0.03543 -0.04046,-0.12289 0,-0.144126 0.12945,-0.06478 0.331215,0.102204 0.43336,0 0.03543,-0.03543 -0.03543,-0.110273 0,-0.144115 0.144629,-0.144114 0.722162,0.144115 0.866581,0 0.03543,-0.03543 -0.03543,-0.110272 0,-0.144114 0.05765,-0.05765 1.232947,-0.221995 1.299906,-0.288743 0.03543,-0.03543 -0.03543,-0.110273 0,-0.144126 0.216429,-0.216429 1.083208,0.216429 1.299847,0 0.03543,-0.03543 -0.03543,-0.110273 0,-0.144115 0.06677,-0.06677 0.34588,0.04549 0.433361,0 0.225024,-0.112728 0.870018,-0.292286 1.011057,-0.433372 0.03543,-0.03543 -0.03543,-0.110272 0,-0.144114 0.06829,-0.06829 0.220978,0.06829 0.288744,0 0.03543,-0.03543 -0.03543,-0.110273 0,-0.144115 0.123381,-0.123393 1.60992,0.123382 1.733161,0 0.03543,-0.03543 -0.03543,-0.110272 0,-0.144126 0.07227,-0.07227 0.361058,0.07227 0.43336,0 0.03543,-0.03543 -0.03543,-0.110272 0,-0.144114 0.151704,-0.151704 1.20286,-0.19165 1.299848,-0.288743 0.03543,-0.03543 -0.03543,-0.110273 0,-0.144115 0.07227,-0.07227 0.361058,0.07227 0.433372,0 0.03543,-0.03543 -0.03543,-0.110272 0,-0.144126 0.06829,-0.06829 0.220978,0.06829 0.288743,0 0.03543,-0.03543 -0.03543,-0.110272 0,-0.144114 0.298859,-0.298859 -0.01052,0.456631 0.288744,-0.144114 0.05964,-0.119347 0.0587,-0.203285 0.144617,-0.289247 0.03543,-0.03543 0.110272,0.03543 0.144629,0 0.03543,-0.03543 -0.03543,-0.110272 0,-0.144126 0.05052,-0.05052 0.385322,-0.09612 0.43336,-0.144114 0.03543,-0.03543 -0.03543,-0.110273 0,-0.144114 0.03543,-0.03543 0.110273,0.03543 0.144629,0 0.08595,-0.08595 0.0849,-0.169911 0.144617,-0.288744 0.09659,-0.19317 0.344371,-0.200256 0.433373,-0.289257 0.05052,-0.05052 0.09612,-0.385323 0.144628,-0.433361 0.03543,-0.03543 0.110273,0.03543 0.144618,0 0.06829,-0.06829 -0.06829,-0.220475 0,-0.288743 0.07227,-0.07227 0.216943,-0.07227 0.288743,-0.144115 0.05052,-0.05063 0.09612,-0.384819 0.144629,-0.433372 0.03543,-0.03543 0.110272,0.03543 0.144617,0 0.11833,-0.118329 0.04549,-0.670779 0.144629,-0.86658 0.03029,-0.06116 0.113781,-0.08338 0.144617,-0.144115 0.04549,-0.087 -0.06677,-0.366624 0,-0.433372 0.03543,-0.03543 0.110273,0.03543 0.144629,0 0.208337,-0.208337 -0.13704,-1.025815 0,-1.299894 0.333238,-0.666944 0.144629,-1.813112 0.144629,-2.599742 0,-0.26801 -0.0304,-2.714388 0,-2.744172 0.03543,-0.03543 0.110273,0.03543 0.144617,0 0.136537,-0.136525 0.02526,-0.745772 0.144629,-0.866581 0.03543,-0.03543 0.110273,0.03543 0.144617,0 0.07227,-0.07227 -0.07227,-0.361046 0,-0.43336 0.03543,-0.03543 0.110273,0.03543 0.144629,0 0.06829,-0.06829 -0.04046,-0.202783 0,-0.288744 0.03029,-0.06069 0.113781,-0.08349 0.144629,-0.144114 0.04046,-0.08595 -0.06829,-0.220989 0,-0.288743 0.03543,-0.03543 0.110273,0.03543 0.144617,0 0.03543,-0.03543 -0.03543,-0.110273 0,-0.144126 0.0047,-0.01053 0.42528,-0.281154 0.433372,-0.288744 0.06829,-0.06829 -0.06829,-0.220977 0,-0.288743 0.05157,-0.0511 0.428309,-0.139063 0.433361,-0.144114 0.03543,-0.03543 -0.03543,-0.110273 0,-0.144115 0.102204,-0.102204 1.23462,0.07893 1.299894,0.144115 0.03543,0.03543 -0.03543,0.110272 0,0.144114 0.06829,0.06829 0.22099,-0.06829 0.288744,0 0.03543,0.03543 -0.03543,0.110273 0,0.144126 0.06829,0.06829 0.220989,-0.06829 0.288743,0 0.03543,0.03543 -0.03543,0.110273 0,0.144114 0.07227,0.07227 0.361058,-0.07227 0.433372,0 0.0047,0.01053 0.281154,0.425281 0.288744,0.433373 0.0683,0.06829 0.22098,-0.06829 0.28874,0 0.0723,0.07227 0.0723,0.216931 0.14462,0.288743 0.0354,0.03543 0.11027,-0.03543 0.14463,0 0.0885,0.08852 0.0955,0.336781 0.28874,0.43336 0.11883,0.05964 0.20329,0.0587 0.28875,0.144115 0.0354,0.03543 -0.0354,0.110272 0,0.144126 0.0354,0.03543 0.11027,-0.03543 0.14461,0 0.0683,0.06829 -0.0683,0.220978 0,0.289246 0.0506,0.05052 0.19267,0.09612 0.14463,0.144114 -0.0354,0.03543 -0.14463,-0.05052 -0.14463,0 0,0.05063 0.11027,-0.03543 0.14463,0 0.005,0.01053 0.28116,0.42528 0.28874,0.433373 0.0354,0.03543 0.11028,-0.03543 0.14462,0 0.0506,0.05052 0.0961,0.385322 0.14463,0.43336 0.005,0.01052 0.42528,0.281166 0.43336,0.288743 0.005,0.01053 0.28117,0.42528 0.28874,0.433372 0.0354,0.03543 0.11028,-0.03543 0.14463,0 0.0505,0.05052 0.0961,0.385323 0.14463,0.433361 0.005,0.01052 0.42527,0.281166 0.43336,0.288743 0.0683,0.06829 -0.0683,0.220978 0,0.289246 0.0354,0.03543 0.11028,-0.03543 0.14463,0 0.0354,0.03543 -0.0354,0.110273 0,0.144126 0.0354,0.03543 0.11027,-0.03543 0.14462,0 0.0354,0.03543 -0.0354,0.110273 0,0.144115 0.0723,0.07227 0.21643,0.07227 0.28874,0.144114 0.0723,0.07227 0.0723,0.216943 0.14463,0.288743 0.0723,0.07227 0.21693,0.07227 0.28874,0.144126 0.0683,0.06829 -0.0683,0.220978 0,0.288744 0.0354,0.03543 0.11028,-0.03543 0.14462,0 0.005,0.01052 0.28117,0.425268 0.28874,0.43336 0.0354,0.03543 0.11028,-0.03543 0.14463,0 0.0663,0.0663 0.23211,0.464209 0.28875,0.577744 0.0405,0.08595 -0.0683,0.220475 0,0.288732 0.0354,0.03543 0.11027,-0.03543 0.14461,0 0.0683,0.06829 -0.0405,0.202782 0,0.289257 0.10525,0.210863 0.23111,0.231093 0.28875,0.288744 0.005,0.0047 0.0931,0.381779 0.14463,0.43336 0.0354,0.03543 0.11027,-0.03543 0.14461,0 0.0683,0.06829 -0.0405,0.202782 0,0.288743 0.0607,0.121873 0.228073,0.166871 0.288753,0.288744 0.0455,0.08747 0.084,0.372681 0.14463,0.43336 0.0354,0.03543 0.11027,-0.03543 0.14462,0 0.0683,0.06829 -0.0683,0.220487 0,0.289258 0.0723,0.07227 0.21694,0.07227 0.28874,0.144114 0.0683,0.06829 -0.0405,0.202783 0,0.288744 0.15069,0.301384 0.28267,0.276102 0.43337,0.577732 0.0405,0.08642 -0.0683,0.220989 0,0.289258 0.0354,0.03543 0.11027,-0.03543 0.14463,0 0.0683,0.06829 -0.0683,0.220474 0,0.288743 0.0354,0.03543 0.11027,-0.03543 0.14461,0 0.0723,0.07227 -0.0723,0.361046 0,0.43336 0.0683,0.06829 0.22048,-0.06829 0.28875,0 0.0723,0.07227 0.0723,0.216429 0.14463,0.288744 0.12945,0.128947 1.27714,0.144114 1.58874,0.144114 0.0592,0 0.39494,-0.04046 0.43336,0 0.0354,0.03543 -0.0354,0.110273 0,0.144126 0.0723,0.07227 0.36106,-0.07227 0.43337,0 0.0354,0.03543 -0.0354,0.110273 0,0.144114 0.0668,0.06677 0.34588,-0.04549 0.43337,0 0.20833,0.104192 0.36914,0.184575 0.57774,0.288744 0.18204,0.09098 0.72791,-0.13856 0.86658,0 0.0354,0.03543 -0.0354,0.110272 0,0.144114 0.14462,0.144126 0.72215,-0.144114 0.86658,0 0.0354,0.03543 -0.0354,0.110273 0,0.144126 0.0152,0.0152 1.43522,0 1.58873,0 0.0592,0 0.39494,0.04046 0.43337,0 0.0354,-0.03543 -0.0354,-0.110272 0,-0.144126 0.0253,-0.02526 1.95931,0 2.16643,0 0.0596,0 0.39494,-0.04046 0.43336,0 0.0354,0.03543 -0.0354,0.110273 0,0.144126 0.0916,0.09156 0.45765,-0.06022 0.57779,0 0.0607,0.03029 0.0835,0.114249 0.14463,0.144115 0.2488,0.124398 1.52761,0 1.87758,0 0.33881,0 -0.0683,-0.03543 0.28874,0.144114 0.445,0.222498 0.78062,-0.187604 1.44433,0.144126 0.19265,0.09612 0.52954,-0.09612 0.72216,0 0.21086,0.105127 0.23109,0.231093 0.28873,0.289246 0.0303,0.03029 1.70005,0.255872 1.73318,0.288743 0.0354,0.03543 -0.0354,0.110273 0,0.144115 0.24676,0.246774 3.21944,-0.246774 3.46632,0 0.0354,0.03543 -0.0354,0.110272 0,0.144114 0.24677,0.246774 3.21945,-0.246762 3.46632,0 0.0354,0.03543 -0.0354,0.110273 0,0.144126 0.0668,0.06677 0.34588,-0.04549 0.43337,0 0.0607,0.03029 0.0834,0.114249 0.14462,0.144115 0.087,0.04549 0.36662,-0.06677 0.43337,0 0.0354,0.03543 -0.0354,0.110272 0,0.144114 0.14412,0.144126 1.87809,-0.144114 2.022,0 0.0354,0.03543 -0.0354,0.110272 0,0.144126 0.0683,0.06829 0.19772,-0.03029 0.28874,0 0.77142,0.256878 1.76042,-0.0587 2.45533,0.289246 0.087,0.04549 0.36662,-0.06677 0.43337,0 0.0354,0.03543 -0.0354,0.110273 0,0.144115 0.12136,0.121369 0.70729,-0.05309 0.86658,0 0.0647,0.02023 0.0799,0.122878 0.14462,0.144126 0.32818,0.10922 0.29178,0.0012 0.57779,0.144114 0.0859,0.04046 0.22098,-0.06829 0.28874,0 0.0577,0.05765 0.0784,0.183558 0.28874,0.288743 0.11577,0.05765 0.31757,-0.05765 0.43337,0 0.28773,0.144115 0.57865,0.145132 0.86659,0.288744 0.357,0.178505 2.2671,-0.188621 2.45526,0 0.0354,0.03543 -0.0354,0.110272 0,0.144114 0.0961,0.09612 0.48141,-0.09612 0.57775,0 0.0354,0.03543 -0.0354,0.110272 0,0.144126 0.26497,0.264467 1.32396,-0.264479 1.58873,0 0.0354,0.03543 -0.0354,0.110272 0,0.144114 0.12035,0.120353 0.60181,-0.120352 0.72216,0 0.0354,0.03543 -0.0354,0.110273 0,0.144115 0.0668,0.06677 0.34589,-0.04549 0.43337,0 0.0607,0.03029 0.0834,0.114248 0.14462,0.144126 0.0859,0.04046 0.22047,-0.06829 0.28874,0 0.0354,0.03543 -0.0455,0.122878 0,0.144114 0.086,0.04046 0.20278,-0.04046 0.28875,0 0.0405,0.02023 -0.0354,0.110273 0,0.144115 0.0662,0.0663 0.46422,0.23211 0.57774,0.288743 0.087,0.04549 0.36661,-0.06677 0.43336,0 0.0354,0.03543 -0.0354,0.110272 0,0.144126 0.13097,0.13097 0.70289,-0.08197 0.86658,0 0.49405,0.246762 1.09606,0.186586 1.58874,0.43336 0.42376,0.21188 1.16509,-0.21188 1.58875,0 0.35094,0.175466 0.55806,0.06221 0.72216,0.144115 0.21086,0.105244 0.23109,0.231104 0.28874,0.288743 0.0683,0.06829 0.20277,-0.04046 0.28873,0 0.58669,0.293292 0.89369,0.591238 1.44433,0.866581 0.0859,0.04046 0.22098,-0.06829 0.28874,0 0.0354,0.03543 -0.0354,0.110272 0,0.144126 0.0405,0.04046 0.3737,0 0.43336,0 0.2124,0 0.22099,0.144114 0.43337,0.144114 0.0879,0 0.52145,-0.0566 0.57774,0 0.0354,0.03543 -0.0354,0.110273 0,0.144114 0.1022,0.102204 0.8506,0 1.01101,0 0.33021,0 0.45258,0.01053 0.72216,0.144127 0.34487,0.172436 2.11485,0 2.59974,0 0.11331,0 0.65009,-0.0718 0.72216,0 0.0354,0.03543 -0.0354,0.110272 0,0.144114 0.16839,0.168391 0.84251,-0.168391 1.011,0 0.0354,0.03543 -0.0354,0.110272 0,0.144114 0.0683,0.06829 0.20277,-0.04046 0.28875,0 0.30138,0.150698 0.2761,0.282674 0.57773,0.433372 0.21289,0.106648 0.84908,-0.161818 1.01106,0 0.0354,0.03543 -0.0354,0.110273 0,0.144115 0.0668,0.06677 0.34587,-0.04549 0.43336,0 0.0607,0.03029 0.0835,0.114248 0.14462,0.144126 0.38937,0.194678 1.92163,-0.05052 2.31085,0.144114 0.45259,0.226041 0.98967,0.205811 1.44433,0.433361 0.1517,0.07589 0.60686,-0.115301 0.72216,0 0.0354,0.03543 -0.0354,0.110272 0,0.144126 0.0961,0.09612 0.4814,-0.09612 0.57773,0 0.0354,0.03543 -0.0354,0.110272 0,0.144114 0.0683,0.06829 0.22098,-0.06829 0.28874,0 0.0354,0.03543 -0.0354,0.110273 0,0.144126 0.16839,0.168391 0.84252,-0.168402 1.011,0 0.0354,0.03543 -0.0354,0.110273 0,0.144115 0.16839,0.16839 0.84252,-0.168391 1.01101,0 0.0354,0.03543 -0.0354,0.110272 0,0.144114 0.14462,0.144126 0.72217,-0.144114 0.86658,0 0.0354,0.03543 -0.0354,0.110273 0,0.144126 0.0668,0.06677 0.34588,-0.04549 0.43336,0 0.20835,0.104192 0.36915,0.184563 0.57775,0.288732 0.15423,0.07741 0.42376,-0.07741 0.57773,0 0.20835,0.104191 0.36915,0.184575 0.57774,0.289257 0.0859,0.04046 0.22098,-0.06829 0.28875,0 0.0354,0.03543 -0.0354,0.110273 0,0.144115 0.0683,0.06829 0.20277,-0.04046 0.28874,0 0.0607,0.03029 0.0834,0.114248 0.14462,0.144114 0.0875,0.04549 0.36662,-0.06677 0.43337,0 0.0354,0.03543 -0.0354,0.110273 0,0.144126 0.0723,0.07227 0.36105,-0.07227 0.43336,0 0.0354,0.03543 -0.0354,0.110273 0,0.144115 0.0581,0.05812 0.70952,0.06619 0.86658,0.144114 0.21088,0.105244 0.23109,0.231105 0.28874,0.288743 0.0961,0.09612 0.48141,-0.09612 0.57775,0 0.0354,0.03543 -0.0354,0.110273 0,0.144126 0.0723,0.07227 0.36104,-0.07227 0.43336,0 0.0354,0.03543 -0.0354,0.110273 0,0.144115 0.0683,0.06829 0.20278,-0.04046 0.28874,0 0.6011,0.300378 -0.15423,-0.01053 0.14463,0.289246 0.0354,0.03543 0.11027,-0.03543 0.14462,0 0.0354,0.03543 0,0.09612 0,0.144114 0,0.592969 -0.37319,0.228567 -0.57773,0.433372 -0.0354,0.03543 0.0354,0.110273 0,0.144115 -0.14463,0.144126 -0.57775,0 -0.72212,0.144126 -0.0354,0.03543 0.0354,0.110272 0,0.144114 -0.0683,0.06829 -0.22098,-0.06829 -0.28874,0 -0.0354,0.03543 0.0354,0.110273 0,0.144115 -0.0683,0.06829 -0.20277,-0.04046 -0.28873,0 -0.1684,0.08396 -0.26499,0.204805 -0.43338,0.289257 -0.0859,0.04046 -0.22097,-0.06829 -0.28874,0 -0.0354,0.03543 0.0354,0.110273 0,0.144115 -0.0683,0.06829 -0.22098,-0.06829 -0.28874,0 -0.0354,0.03543 0.0354,0.110272 0,0.144114 -0.0662,0.0663 -0.46421,0.23211 -0.57774,0.288743 -0.25891,0.129451 -0.0855,-0.347902 -0.28874,-0.144114 -0.0354,0.03543 0.0354,0.110273 0,0.144114 -0.0692,0.06923 -0.48848,0.199239 -0.57774,0.289247 -0.0105,0.01052 -0.28116,0.42528 -0.28875,0.433372 -0.12035,0.120352 -0.45713,0.02526 -0.57773,0.144114 -0.0723,0.07227 -0.0723,0.216429 -0.14463,0.289246 -0.0683,0.06829 -0.22097,-0.06829 -0.28874,0 -0.0354,0.03543 0.0354,0.110273 0,0.144126 -0.0683,0.06829 -0.20277,-0.04046 -0.28874,0 -0.20834,0.104192 -0.36914,0.184575 -0.57774,0.288744 -0.087,0.04549 -0.36661,-0.06677 -0.43337,0 -0.0354,0.03543 0.0354,0.110272 0,0.144114 -0.0961,0.09612 -0.4814,-0.09612 -0.57773,0 -0.0354,0.03543 0.0354,0.110272 0,0.144114 -0.0961,0.09612 -0.48141,-0.09612 -0.57774,0 -0.0354,0.03543 0.0354,0.110273 0,0.144126 -0.0668,0.06677 -0.34588,-0.04549 -0.43336,0 -0.0607,0.03029 -0.0834,0.114249 -0.14463,0.144115 -0.1608,0.08045 -0.74203,0.02023 -0.86658,0.144114 -0.0354,0.03543 0.0354,0.110273 0,0.144126 -0.0668,0.06677 -0.34639,-0.04549 -0.43336,0 -0.0607,0.03029 -0.0834,0.114249 -0.14463,0.144115 -0.0859,0.04046 -0.22098,-0.06829 -0.28875,0 -0.0354,0.03543 0.0354,0.110272 0,0.144114 -0.0683,0.06829 -0.22097,-0.06829 -0.28874,0 -0.0354,0.03543 0.0354,0.110272 0,0.144126 -0.14462,0.144114 -0.57773,0 -0.72215,0.144114 -0.0354,0.03543 0.0354,0.110273 0,0.144115 -0.0961,0.09612 -0.48141,-0.09612 -0.57774,0 -0.0354,0.03543 0.0354,0.110272 0,0.144126 -0.0723,0.07227 -0.36106,-0.07227 -0.43336,0 -0.0576,0.05765 -0.0784,0.183557 -0.28875,0.288743 -0.0859,0.04046 -0.22099,-0.06829 -0.28874,0 -0.0354,0.03543 0.0354,0.110273 0,0.144114 -0.0966,0.09612 -0.48141,-0.09612 -0.57774,0 -0.0354,0.03543 0.0354,0.110273 0,0.144115 -0.0723,0.07227 -0.36105,-0.07227 -0.43337,0 -0.0354,0.03543 0.0354,0.110272 0,0.144126 -0.0668,0.06677 -0.34589,-0.04549 -0.43337,0 -0.0607,0.03029 -0.0834,0.114248 -0.14461,0.144114 -0.0859,0.04046 -0.22099,-0.06829 -0.28875,0 -0.0354,0.03543 0.0354,0.110273 0,0.144115 -0.0961,0.09612 -0.48141,-0.09612 -0.57774,0 -0.0354,0.03543 0.0354,0.110272 0,0.144126 -0.12035,0.120352 -0.60181,-0.120353 -0.72216,0 -0.0354,0.03543 0.0354,0.110272 0,0.144114 -0.0683,0.06829 -0.19266,0 -0.28874,0 -0.20682,0 -1.16822,0.131988 -1.2999,0 -0.0354,-0.03543 0.0354,-0.110272 0,-0.144114 -0.13602,-0.136034 -0.38532,0 -0.57773,0 -0.26953,0 -0.20632,0.03029 -0.43338,0.144114 -0.12035,0.06022 -0.48595,-0.09156 -0.57773,0 -0.0354,0.03543 0.0354,0.110273 0,0.144114 -0.0668,0.06677 -0.34589,-0.04549 -0.43337,0 -0.0607,0.03029 -0.0834,0.114249 -0.14462,0.144127 -0.21289,0.106647 -0.84908,-0.161819 -1.01101,0 -0.0354,0.03543 0.0354,0.110272 0,0.144114 -0.0931,0.09308 -3.97291,-0.1077 -4.47732,0.144114 -0.0607,0.0304 -0.0834,0.114249 -0.14463,0.144126 -0.18204,0.09098 -0.72797,-0.138559 -0.86663,0 -0.18205,0.182038 1.46763,0.167888 1.58875,0.288744 0.0354,0.03543 -0.0354,0.110272 0,0.144114 0.24069,0.240705 1.2036,-0.240705 1.44431,0 0.0723,0.07227 0.0723,0.216429 0.14463,0.288743 0.005,0.0047 0.38178,0.09308 0.43336,0.144115 0.0354,0.03543 -0.0354,0.110272 0,0.144126 0.14463,0.144114 0.57774,0 0.72216,0.144114 0.0354,0.03543 -0.0354,0.110273 0,0.144114 0.0663,0.06619 0.46421,0.232111 0.57775,0.289258 0.1517,0.07589 0.60686,-0.115301 0.72215,0 0.0354,0.03543 -0.0354,0.110273 0,0.144115 0.0683,0.06829 0.22099,-0.06829 0.28874,0 0.0516,0.0511 0.13906,0.428308 0.14463,0.43336 0.0723,0.07227 0.21643,0.07227 0.28874,0.144126 0.005,0.01052 0.28116,0.425269 0.28874,0.433361 0.0536,0.05356 0.70703,0.303922 0.43336,0.577743 -0.12035,0.120353 -0.45713,0.02526 -0.57773,0.144115 -0.0516,0.0511 -0.13906,0.428309 -0.14463,0.433372 -0.0723,0.07227 -0.21693,0.07227 -0.28874,0.144114 -0.0354,0.03543 0.0354,0.110273 0,0.144115 -0.12035,0.120352 -0.45713,0.02526 -0.57773,0.144126 -0.0723,0.07227 -0.0723,0.216429 -0.14463,0.289246 -0.0723,0.07227 -0.60908,0 -0.72216,0 -0.14867,0 -0.18103,0.251826 -0.28875,0.144114 -0.0152,-0.0152 -0.11074,-0.32262 -0.28874,-0.144114 -0.0354,0.03543 0.0354,0.110272 0,0.144114 -0.0683,0.06829 -0.22098,-0.06829 -0.28873,0 -0.0354,0.03543 0.0354,0.110273 0,0.144126 -0.0683,0.06829 -0.22099,-0.06829 -0.28874,0 -0.0354,0.03543 0.0354,0.110273 0,0.144115 -0.0683,0.06829 -0.22099,-0.06829 -0.28875,0 -0.0354,0.03543 0.0354,0.110272 0,0.144114 -0.0354,0.03543 -0.11027,-0.03543 -0.14463,0 -0.0576,0.05765 -0.0783,0.183569 -0.28874,0.288743 -0.0859,0.04046 -0.22098,-0.06829 -0.28874,0 -0.0354,0.03543 0.0354,0.110273 0,0.144115 -0.0683,0.06829 -0.22048,-0.06829 -0.28875,0 -0.0354,0.03543 0.0354,0.110272 0,0.144126 -0.18507,0.185078 -2.4146,-0.185078 -2.59974,0 -0.0354,0.03543 0.0354,0.110272 0,0.144114 -0.14411,0.144115 -1.87809,-0.144114 -2.02205,0 -0.0152,0.0152 -0.11074,0.32262 -0.28875,0.144115 -0.0354,-0.03543 0.0354,-0.110273 0,-0.144115 -0.0303,-0.03029 -0.53212,-0.02526 -0.57773,0 -0.8448,0.42224 -1.83648,0.340325 -2.59974,0.722162 -0.14716,0.07379 -0.60768,-0.114833 -0.72216,0 -0.0354,0.03543 0.0354,0.110273 0,0.144115 -0.14463,0.144126 -0.72217,-0.144115 -0.86658,0 -0.0354,0.03543 0.0354,0.110272 0,0.144126 -0.0916,0.09156 -0.45764,-0.06022 -0.57775,0 -0.0607,0.03029 -0.0834,0.114248 -0.14462,0.144114 -0.15424,0.07741 -0.42376,-0.07741 -0.57774,0 -0.0607,0.0304 -0.0834,0.114249 -0.14462,0.144115 -0.27408,0.137039 -1.09155,-0.208337 -1.2999,0 -0.0354,0.03543 0.0354,0.110272 0,0.144126 -0.0916,0.09156 -0.45764,-0.06022 -0.57769,0 -0.0607,0.03029 -0.0834,0.114248 -0.14462,0.144114 -0.23008,0.114833 -0.80276,-0.104192 -1.2999,0.144114 -0.36763,0.18357 -1.31314,0 -1.73316,0 -0.30037,0 -0.15423,0.01053 -0.28875,0.144127 -0.0202,0.02023 -2.20794,0 -2.45532,0 -0.13704,0 -0.77934,0.087 -0.86658,0 -0.0683,-0.06829 0.0683,-0.220475 0,-0.289258 -0.0505,-0.05052 -0.79477,-0.03543 -0.86658,0 -0.27559,0.138057 -0.15777,0.0047 -0.43336,0.144126 -0.0405,0.02023 0.0354,0.110272 0,0.144114 -0.0561,0.05613 -0.4895,0 -0.57775,0 -0.98985,0 -3.11244,0.2493 -3.89963,-0.144114 -0.087,-0.04549 -0.36663,0.06677 -0.43337,0 -0.0354,-0.03543 0.0354,-0.110273 0,-0.144126 -0.26497,-0.264467 -1.32396,0.264478 -1.58873,0 -0.0354,-0.03543 0.0354,-0.110273 0,-0.144115 -0.0718,-0.0718 -1.24838,-0.09308 -1.29985,-0.144114 -0.0354,-0.03543 0.0354,-0.110273 0,-0.144126 -0.11783,-0.117815 -0.74862,-0.02526 -0.86658,-0.144114 -0.0354,-0.03543 0.0354,-0.110273 0,-0.144115 -0.14463,-0.144126 -0.72217,0.144115 -0.8666,0 -0.0354,-0.03543 0.0354,-0.110272 0,-0.144126 -0.0303,-0.03029 -0.53217,-0.02526 -0.57773,0 -0.005,0.0023 -0.54239,0.651473 -0.57773,0.722162 -0.0202,0.04046 0.0354,0.110273 0,0.144126 -0.0835,0.08338 -0.49405,0.205297 -0.57774,0.289247 -0.005,0.01052 -0.28116,0.425268 -0.28875,0.43336 -0.0723,0.07227 -0.21643,0.07227 -0.28874,0.144126 -0.0505,0.05052 -0.0961,0.385322 -0.14462,0.433361 -0.005,0.01052 -0.42528,0.281154 -0.43337,0.288743 -0.0354,0.03543 0.0354,0.110272 0,0.144114 -0.0354,0.03543 -0.11027,-0.03543 -0.14463,0 -0.29884,0.298859 0.45663,-0.01052 -0.14462,0.288743 -0.0405,0.02023 -0.11027,-0.03543 -0.14462,0 -0.0683,0.06829 0.0683,0.22099 0,0.288744 -0.0683,0.06829 -0.22098,-0.06829 -0.28875,0 -0.005,0.01052 -0.28115,0.42528 -0.28874,0.433372 -0.1001,0.100099 -0.62213,0.04549 -0.72221,0.144114 -0.0354,0.03543 0.0354,0.110273 0,0.144115 -0.0683,0.06829 -0.22098,-0.06829 -0.28874,0 -0.0354,0.03543 0.0354,0.110272 0,0.144126 -0.0723,0.07227 -0.48292,0.05052 -0.57774,0.144114 -0.0354,0.03543 0.0354,0.110273 0,0.144115 -0.087,0.087 -0.72958,0 -0.86658,0 -0.16029,0 -0.90885,0.102203 -1.011,0 -0.0354,-0.03543 0.0354,-0.110273 0,-0.144115 -0.0683,-0.06829 -0.22098,0.06829 -0.28874,0 -0.0354,-0.03543 0.0354,-0.110272 0,-0.144114 -0.005,-0.01053 -0.42528,-0.281166 -0.43337,-0.288744 -0.0354,-0.03543 0.0354,-0.110272 0,-0.144126 -0.29886,-0.298846 0.0105,0.456632 -0.28874,-0.144114 -0.0202,-0.04046 0.0354,-0.110272 0,-0.144114 -0.0354,-0.03543 -0.14462,0.04549 -0.14462,0 0,-0.06829 0.14462,-0.07636 0.14462,-0.144126 0,-0.05052 -0.10116,0.02023 -0.14462,0 -0.60111,-0.300367 0.15423,0.01052 -0.14463,-0.288732 -0.084,-0.08349 -0.49405,-0.205308 -0.57773,-0.288743 -0.0683,-0.06829 0.0683,-0.22099 0,-0.289258 -0.005,-0.01052 -0.42528,-0.281154 -0.43337,-0.288732 -0.1001,-0.100099 -0.0455,-0.622145 -0.14463,-0.722162 -0.0354,-0.03543 -0.11028,0.03543 -0.14462,0 -0.0723,-0.07227 -0.0723,-0.216943 -0.14463,-0.289246 -0.0723,-0.07227 -0.21643,-0.07227 -0.28874,-0.144126 -0.29885,-0.298858 0.45663,0.01052 -0.14462,-0.288743 -0.0405,-0.02023 -0.11027,0.03543 -0.14463,0 -0.0354,-0.03543 0.0354,-0.110273 0,-0.144115 -0.0505,-0.05052 -0.38532,-0.09612 -0.43336,-0.144114 -0.0576,-0.05765 -0.0784,-0.183569 -0.28874,-0.288743 -0.086,-0.04046 -0.22099,0.06829 -0.28875,0 -0.0354,-0.03543 0.0354,-0.110273 0,-0.144126 -0.14462,-0.144115 -0.72216,0.144126 -0.86658,0 -0.0354,-0.03543 0.0354,-0.110273 0,-0.144115 -0.1001,-0.100099 -0.62208,-0.04549 -0.72216,-0.144114 -0.0723,-0.07227 -0.0723,-0.216429 -0.14463,-0.289258 -0.14461,-0.144114 -0.57773,0 -0.72215,-0.144114 -0.0354,-0.03543 0.0354,-0.110273 0,-0.144115 -0.14463,-0.144126 -0.72216,0.144115 -0.86658,0 -0.0354,-0.03543 0.0354,-0.110272 0,-0.144126 -0.0566,-0.05613 -0.4895,0 -0.57774,0 -1.2999,0 -2.59975,0 -3.89964,0 -0.722123,0 -1.425663,0.01053 -2.022013,-0.288731 -0.45713,-0.228567 -3.31199,0.149166 -4.18849,-0.288744 -0.12035,-0.06022 -0.485955,0.09156 -0.577739,0 -0.03543,-0.03543 0.03543,-0.110272 0,-0.144126 -0.0566,-0.0566 -0.489491,0 -0.577733,0 -0.09612,0 -0.288743,-0.09612 -0.288743,0 0,0.05063 0.192667,0 0.144629,0 -0.223515,0 -0.648643,0.07285 -0.866581,0 -0.298858,-0.09963 -0.293303,-0.144114 -0.577743,-0.144114 -0.380271,0 -1.350564,0.09402 -1.588743,-0.144114 -0.03543,-0.03543 0.03543,-0.110273 0,-0.144127 -0.115301,-0.1153 -0.570658,0.07589 -0.722162,0 -0.06069,-0.03029 -0.08349,-0.114248 -0.144618,-0.144114 -0.230087,-0.115301 -0.802767,0.104192 -1.299894,-0.144114 -0.05063,-0.02526 -1.971645,-0.02526 -2.02201,0 -0.06069,0.03029 -0.08349,0.114248 -0.144629,0.144114 -0.231093,0.115769 -0.635476,-0.115769 -0.86658,0 -0.335764,0.167888 -0.675177,0.265484 -1.010999,0.433361 -0.08595,0.04549 -0.220978,-0.06829 -0.288744,0 -0.03543,0.03543 0.03543,0.110272 0,0.144126 -0.120352,0.120352 -0.601809,-0.120353 -0.722162,0 -0.03543,0.03543 0.03543,0.110272 0,0.144114 -0.06829,0.06829 -0.192655,0 -0.288743,0 -0.45814,0 -2.129663,0.162824 -2.455324,0 -0.06069,-0.03029 -0.08338,-0.114248 -0.144617,-0.144114 -0.272559,-0.136537 -1.733816,0.143611 -1.877638,0 -0.03543,-0.03543 0.03543,-0.110273 0,-0.144126 -0.26497,-0.264467 -1.323913,0.264981 -1.588684,0 -0.0304,-0.03029 -0.0304,-0.692881 0,-0.722104 0.192655,-0.192667 0.962808,0.192667 1.155417,0 0.03543,-0.03543 -0.03543,-0.110273 0,-0.144115 0.06829,-0.06829 0.202782,0.04046 0.288743,0 0.208337,-0.104191 0.36915,-0.184574 0.577744,-0.289257 0.087,-0.04549 0.366612,0.06677 0.433361,0 0.03543,-0.03543 -0.03543,-0.110273 0,-0.144115 0.09612,-0.09612 0.48141,0.09612 0.577743,0 0.03543,-0.03543 -0.03543,-0.110272 0,-0.144114 0.0152,-0.02023 0.866581,-0.01053 0.866581,-0.144126 0,-0.04549 -0.09612,0 -0.144629,0 -0.144617,0 -0.288743,0 -0.43336,0 -0.113313,0 -0.650105,0.07227 -0.722163,0 -0.03543,-0.03543 0.03543,-0.110273 0,-0.144115 -0.06829,-0.06829 -0.220977,0.06829 -0.288743,0 -0.03543,-0.03543 0.03543,-0.110272 0,-0.144114 -0.06829,-0.06829 -0.202782,0.04046 -0.288743,0 -0.06069,-0.0304 -0.08338,-0.114248 -0.144629,-0.144126 -0.120341,-0.06022 -0.485948,0.09156 -0.577732,0 -0.03543,-0.03543 0.03543,-0.110273 0,-0.144114 -0.0152,-0.0152 -1.435215,0 -1.588743,0 -0.13704,0 -0.779345,0.087 -0.866581,0 -0.03543,-0.03543 0.03543,-0.110273 0,-0.144115 -0.06829,-0.06829 -0.220977,0.06829 -0.288743,0 -0.03543,-0.03543 0.03543,-0.110272 0,-0.144126 -0.06829,-0.06829 -0.20277,0.04046 -0.288743,0 -0.372682,-0.186586 -0.493537,-0.246762 -0.866581,-0.43336 -0.211377,-0.105712 -0.589366,0.06619 -1.011001,-0.144126 -0.212891,-0.106648 -0.849085,0.161818 -1.011004,0 -0.07231,-0.07227 -0.07231,-0.216429 -0.144623,-0.288732 -0.06827,-0.06829 -0.220982,0.06829 -0.288743,0 -0.0354,-0.03543 0.0354,-0.110272 0,-0.144126 -0.07232,-0.07227 -0.361055,0.07227 -0.433367,0 -0.0354,-0.03543 0.0354,-0.110273 0,-0.144114 -0.213396,-0.213401 -1.280124,0.206816 -1.444318,0.289246 -0.08698,0.04549 -0.366617,-0.06677 -0.433367,0 -0.0354,0.03543 0.0354,0.110272 0,0.144114 -0.06018,0.05964 -1.977861,-0.04549 -2.022057,0 -0.0354,0.03543 0.0354,0.110273 0,0.144126 -0.06827,0.06829 -0.220475,-0.06829 -0.288742,0 -0.0354,0.03543 0.0354,0.110273 0,0.144115 -0.06827,0.06829 -0.220982,-0.06829 -0.288743,0 -0.0354,0.03543 0.0354,0.110272 0,0.144114 -0.144624,0.144126 -0.577738,0 -0.722109,0.144126 -0.005,0.01052 -0.281156,0.425268 -0.288742,0.43336 -0.09608,0.09612 -0.481406,-0.09612 -0.577738,0 -0.0354,0.03543 0.0354,0.110273 0,0.144127 -0.03035,0.03029 -0.577738,-0.02526 -0.577738,0 0,0.087 0.543453,-0.365104 0.577738,-0.433373 0.296834,-0.593413 0.553465,-0.264467 1.011003,-0.722162 0.161312,-0.161304 0.375214,-0.476347 0.577738,-0.577732 0.089,-0.04549 0.524135,-0.09098 0.577737,-0.144126 0.07232,-0.07227 0.07232,-0.216429 0.144624,-0.289246 0.08648,-0.08595 0.288744,0.156264 0.288744,-0.144115 0,-0.386339 -0.239693,0.239185 -0.288744,0.288744 -0.244747,0.244751 -0.722158,-0.141589 -0.722158,-0.288744 0,-0.226041 -0.179516,-0.179511 -0.288744,-0.288743 -0.0354,-0.03543 0.0354,-0.110272 0,-0.144114 -0.0354,-0.03543 -0.110237,0.03543 -0.144624,0 -0.0354,-0.03543 0.0354,-0.110273 0,-0.144126 -0.0354,-0.03543 -0.09608,0 -0.144623,0 -0.05056,0 -0.110237,0.03543 -0.144624,0 -0.0354,-0.03543 0.0354,-0.110273 0,-0.144115 -0.06827,-0.06829 -0.220982,0.06829 -0.288743,0 -0.0354,-0.03543 0.0354,-0.110272 0,-0.144114 -0.0354,-0.03543 -0.09608,0 -0.144623,0 -0.05056,0 -0.110238,0.03543 -0.144625,0 -0.0354,-0.03543 0.0354,-0.110273 0,-0.144126 -0.161817,-0.161819 -0.798011,0.106764 -1.011003,0 -0.210868,-0.105127 -0.231095,-0.231093 -0.288742,-0.288743 -0.05056,-0.05052 -0.385327,-0.09612 -0.433367,-0.144115 -0.0354,-0.03543 0.0354,-0.110272 0,-0.144114 -0.06827,-0.06829 -0.220982,0.06829 -0.288743,0 -0.0354,-0.03543 0.0354,-0.110273 0,-0.144126 -0.168391,-0.168391 -0.84251,0.168391 -1.011003,0 -0.0354,-0.03543 0.0354,-0.110273 0,-0.144115 -0.07231,-0.07227 -0.361054,0.07227 -0.433366,0 -0.0354,-0.03543 0.0354,-0.110272 0,-0.144114 -0.06827,-0.06829 -0.220981,-0.06829 -0.288742,0 -0.06827,0.06829 0.06827,0.220978 0,0.288743 -0.07231,0.07227 -0.216936,0.07227 -0.288743,0.144115 -0.06827,0.06829 0.06827,0.220475 0,0.288743 -0.03035,0.03029 -0.839477,0.460163 -1.011053,0.288743 -0.216431,-0.216429 0.21643,-1.08322 0,-1.299894 -0.06827,-0.06829 -0.202778,0.04046 -0.288743,0 -0.366111,-0.183066 -0.579205,-0.433875 -0.866581,-0.577744 -0.08698,-0.04549 -0.366617,0.06677 -0.433368,0 -0.0354,-0.03543 0.0354,-0.110272 0,-0.144114 -0.06827,-0.06829 -0.202776,0.04046 -0.288742,0 -0.06068,-0.03029 -0.08343,-0.114249 -0.144624,-0.144126 -0.192663,-0.09612 -0.529547,0.09612 -0.722159,0 -0.22705,-0.113781 -0.16384,-0.144115 -0.433367,-0.144115 -0.153726,0 -1.573216,-0.0152 -1.588741,0 -0.0354,0.03543 0.0354,0.110273 0,0.144115 -0.0354,0.03543 -0.110237,-0.03543 -0.144624,0 -0.0354,0.03543 0.0354,0.110272 0,0.144126 -0.0354,0.03543 -0.110237,-0.03543 -0.144624,0 -0.0354,0.03543 0.0354,0.110272 0,0.144114 -0.0354,0.03543 -0.110238,-0.03543 -0.144623,0 -0.0354,0.03543 0.0354,0.110273 0,0.144114 -0.0354,0.03543 -0.110238,-0.03543 -0.144624,0 -0.0354,0.03543 0.0354,0.110273 0,0.144127 -0.05765,0.05765 -0.183561,0.07835 -0.288744,0.288743 -0.04551,0.087 0.06675,0.366612 0,0.43336 -0.0354,0.03543 -0.110237,-0.03543 -0.144623,0 -0.07231,0.07227 0.07232,0.361058 0,0.433372 -0.0354,0.03543 -0.110237,-0.03543 -0.144624,0 -0.06827,0.06829 0.06827,0.220475 0,0.288744 -0.0354,0.03543 -0.110237,-0.03543 -0.144624,0 -0.05056,0.05052 -0.09608,0.385322 -0.144624,0.43336 -0.0354,0.03543 -0.110238,-0.03543 -0.144625,0 -0.06827,0.06829 0.06827,0.22099 0,0.288744 -0.0354,0.03543 -0.110237,-0.03543 -0.144624,0 -0.05056,0.05052 -0.09608,0.385334 -0.144624,0.433372 -0.0354,0.03543 -0.110237,-0.03543 -0.144623,0 -0.0354,0.03543 0.02023,0.101151 0,0.144114 -0.115804,0.231093 -0.46219,0.346394 -0.577738,0.577732 -0.04551,0.08747 -0.08394,0.372693 -0.144624,0.433372 -0.0354,0.03543 -0.110238,-0.03543 -0.144625,0 -0.0354,0.03543 0.02023,0.101152 0,0.144115 -0.06068,0.121873 -0.22806,0.166882 -0.288742,0.288743 -0.07383,0.147658 -0.65627,1.378488 -0.722159,1.444324 -0.07231,0.07227 -0.216937,0.07227 -0.288743,0.144115 -0.07636,0.07636 -0.357009,0.645848 -0.433366,0.722162 -0.0354,0.03543 -0.110237,-0.03543 -0.144624,0 -0.07636,0.07636 -0.357009,0.645849 -0.433366,0.722162 -0.07232,0.07227 -0.361056,-0.07227 -0.433368,0 -0.0354,0.03543 0.0354,0.110273 0,0.144115 -0.05056,0.05052 -0.385327,0.09612 -0.433366,0.144114 -0.0354,0.03543 0.0354,0.110273 0,0.144126 -0.175976,0.175968 -0.322623,0.06771 -0.433367,0.288743 -0.05967,0.119336 -0.05866,0.202771 -0.144624,0.288744 -0.005,0.01052 -0.425275,0.281154 -0.433366,0.289246 -0.08394,0.08338 -0.205306,0.494039 -0.288742,0.577732 -0.0354,0.03543 -0.110238,-0.03543 -0.144625,0 -0.07231,0.07227 -0.07231,0.216429 -0.144624,0.289246 -0.298856,0.298858 0.01006,-0.456619 -0.288742,0.144126 -0.02023,0.04046 0.0354,0.110273 0,0.144114 -0.0354,0.03543 -0.110237,-0.03543 -0.144624,0 -0.0354,0.03543 0.0354,0.110273 0,0.144115 -0.0354,0.03543 -0.110238,-0.03543 -0.144624,0 -0.0354,0.03543 0.0354,0.110272 0,0.144126 -0.02528,0.02526 -0.330714,0.186083 -0.433367,0.288743 -0.160299,0.160299 -0.806759,1.010952 -1.011003,1.010952 -0.05056,0 0.0354,-0.110272 0,-0.144126 -0.08546,-0.08548 -0.770048,0.240706 -0.866581,0.289258 -0.121869,0.06116 -0.17547,0.213389 -0.288742,0.288732 -0.179011,0.119347 -0.398476,0.169408 -0.577738,0.288743 -0.113266,0.07589 -0.166874,0.228064 -0.288743,0.288743 -0.04045,0.02023 -0.110238,-0.03543 -0.144623,0 -0.0354,0.03543 0.0354,0.110273 0,0.144126 -0.0354,0.03543 -0.10114,-0.02023 -0.144625,0 -0.121869,0.06069 -0.166874,0.228053 -0.288743,0.288744 -0.089,0.04549 -0.524135,0.09098 -0.577737,0.144114 -0.0354,0.03543 0.0354,0.110273 0,0.144114 -0.247783,0.24778 -0.685599,-0.158778 -1.011003,-0.289246 z"
       id="path4970" />
    <path
       style="fill:#000000;stroke:#ffffff;stroke-width:0.321117;stroke-opacity:1"
       d="m 57.152636,180.35385 c 0.200078,-0.22597 1.512106,-0.37956 1.522761,-0.38838 0.03527,-0.0294 -0.03527,-0.0989 0,-0.12946 0.0965,-0.0823 0.482533,0.0529 0.60905,0 0.06421,-0.0294 0.08768,-0.10246 0.152412,-0.12947 0.126529,-0.0529 0.51255,0.0823 0.609124,0 0.03527,-0.0294 -0.03527,-0.0989 0,-0.12946 0.0765,-0.0647 0.642123,0 0.761349,0 0.193607,0 1.094887,0.1047 1.218174,0 0.03527,-0.0294 -0.03527,-0.0989 0,-0.12946 0.01118,-0.0112 1.579605,-0.12946 1.827237,-0.12946 0.207131,0 2.109455,0.0176 2.13181,0 0.03527,-0.0294 -0.03527,-0.0989 0,-0.12946 0.07588,-0.0647 0.380744,0.0647 0.456651,0 0.03527,-0.0294 -0.03527,-0.0989 0,-0.12946 0.203021,-0.17242 1.015154,0.17242 1.218236,0 0.03527,-0.0294 -0.03527,-0.0989 0,-0.12946 0.25363,-0.21596 1.268895,0.21596 1.522637,0 0.03527,-0.0294 -0.03527,-0.0989 0,-0.12946 0.0965,-0.0823 0.482545,0.0529 0.609124,0 0.06409,-0.0294 0.08768,-0.10234 0.152412,-0.12946 0.162409,-0.0688 0.446641,0.0688 0.609112,0 0.177722,-0.0754 0.279524,-0.18361 0.456651,-0.25894 0.173002,-0.0735 0.391324,0.0294 0.761349,-0.12946 0.192427,-0.0818 0.767472,0.1242 0.913649,0 0.03527,-0.0294 -0.03527,-0.0988 0,-0.12946 0.06123,-0.0529 0.828551,-0.0935 0.913637,-0.12946 0.595823,-0.25303 1.177922,-0.24185 1.827236,-0.51784 0.18125,-0.0771 1.63204,-0.093 1.674999,-0.12946 0.03527,-0.0294 -0.03527,-0.0989 0,-0.12946 0.144177,-0.12245 1.567421,0.15241 2.284048,0 0.07005,-0.0112 0.08768,-0.10233 0.152412,-0.12947 0.09066,-0.0412 0.232442,0.0612 0.304239,0 0.03527,-0.0294 -0.03527,-0.0989 0,-0.12946 0.07005,-0.06 0.364846,0.0412 0.456651,0 0.12828,-0.0529 0.175946,-0.20419 0.304822,-0.25892 0.09066,-0.0412 0.232443,0.0612 0.304823,0 0.03527,-0.0294 -0.03527,-0.0989 0,-0.12946 0.0765,-0.0647 0.380731,0.0647 0.456639,0 0.406041,-0.34542 -0.456639,0.0412 0.152411,-0.12946 0.83527,-0.23657 1.176395,-0.37074 1.827299,-0.64737 0.110036,-0.0471 1.0271,-0.0965 1.065874,-0.12946 0.03527,-0.0294 -0.03527,-0.0989 0,-0.12946 0.127697,-0.10892 1.432024,0.10296 1.674998,0 0.06409,-0.0294 0.08768,-0.10246 0.152412,-0.12947 0.126517,-0.0529 0.512551,0.0823 0.609124,0 0.03527,-0.0294 -0.03527,-0.0989 0,-0.12946 0.07588,-0.0647 0.380731,0.0647 0.456639,0 0.03527,-0.0294 -0.03527,-0.0989 0,-0.12946 0.07005,-0.0594 0.489599,-0.20831 0.609062,-0.25892 0.09116,-0.0412 0.232442,0.0612 0.304823,0 0.03527,-0.0294 -0.03527,-0.0989 0,-0.12946 0.0765,-0.0647 0.38073,0.0647 0.45665,0 0.03527,-0.0294 -0.03527,-0.0989 0,-0.12946 0.07178,-0.0612 0.232443,0.0612 0.304823,0 0.03527,-0.0294 -0.03527,-0.0989 0,-0.12946 0.0965,-0.0823 0.482533,0.0529 0.60905,0 0.427229,-0.18184 1.374349,-0.26246 1.675003,-0.51786 0.17359,-0.1477 0.51902,-0.19066 0.76135,-0.25892 0.0471,-0.0112 0.20302,0 0.15241,0 -0.20302,0 -0.46547,0.12184 -0.60905,0 -0.0353,-0.0294 0.0353,-0.0989 0,-0.12946 -0.0353,-0.0294 -0.1165,0.0294 -0.15241,0 -0.0353,-0.0294 0.0353,-0.0989 0,-0.12946 -0.0718,-0.0612 -0.232447,0.0612 -0.304244,0 -0.03527,-0.0294 0.03527,-0.0989 0,-0.12946 -0.0883,-0.0748 -0.520785,-0.18359 -0.609112,-0.25892 -0.03527,-0.0294 0.03527,-0.0989 0,-0.12946 -0.177722,-0.15124 -0.735989,0.0235 -0.913649,-0.12947 -0.03527,-0.0294 0.03527,-0.0989 0,-0.12946 -0.07178,-0.0612 -0.232442,0.0612 -0.304239,0 -0.03527,-0.0294 0.03527,-0.0989 0,-0.12946 -0.07178,-0.0612 -0.232442,0.0612 -0.304823,0 -0.03527,-0.0294 0.03527,-0.0989 0,-0.12946 -0.07178,-0.0612 -0.232442,0.0612 -0.304823,0 -0.03527,-0.0294 0.03527,-0.0989 0,-0.12946 -0.07178,-0.0612 -0.232442,0.0612 -0.304823,0 -0.03527,-0.0294 0.03527,-0.0989 0,-0.12946 -0.0037,-0.006 -1.668168,-0.38251 -1.674999,-0.38838 -0.03527,-0.0294 0.03527,-0.0989 0,-0.12946 -0.07178,-0.0612 -0.232442,0.0612 -0.304226,0 -0.06123,-0.0529 -0.08234,-0.16477 -0.304823,-0.25894 -0.09178,-0.0412 -0.386618,0.06 -0.456651,0 -0.0765,-0.0647 -0.0765,-0.19419 -0.152411,-0.25892 -0.07179,-0.0612 -0.232443,0.0612 -0.304823,0 -0.03527,-0.0294 0.03527,-0.0989 0,-0.12946 -0.07005,-0.0595 -0.4896,-0.20831 -0.609112,-0.25892 -0.09066,-0.0412 -0.232443,0.0612 -0.304823,0 -0.03527,-0.0294 0.03527,-0.0989 0,-0.12946 -0.05291,-0.0412 -0.406042,-0.0859 -0.456651,-0.12946 -0.03527,-0.0294 0.04707,-0.11004 0,-0.12946 -0.217725,-0.093 -0.570214,0.0353 -0.761349,-0.12947 -0.03527,-0.0294 0.03527,-0.0989 0,-0.12946 -0.0806,-0.0683 -0.680909,-0.32013 -0.76135,-0.38838 -0.03527,-0.0294 0.03527,-0.0989 0,-0.12946 -0.07178,-0.0612 -0.213614,0.0412 -0.304823,0 -0.128293,-0.0529 -0.175959,-0.20421 -0.304823,-0.25893 -0.09066,-0.0412 -0.232442,0.0612 -0.304823,0 -0.03527,-0.0294 0.03527,-0.0988 0,-0.12946 -0.05291,-0.0412 -0.406041,-0.0859 -0.45665,-0.12946 -0.03527,-0.0294 0.03527,-0.0988 0,-0.12947 -0.07179,-0.0612 -0.232443,0.0612 -0.304823,0 -0.03527,-0.0294 0.03527,-0.0989 0,-0.12946 -0.07179,-0.0612 -0.232443,0.0612 -0.30424,0 -0.03527,-0.0294 0.03527,-0.0989 0,-0.12946 -0.0765,-0.0647 -0.509607,-0.0471 -0.609111,-0.12946 -0.03527,-0.0294 0.03527,-0.0989 0,-0.12946 -0.105317,-0.09 -0.655847,-0.0412 -0.761412,-0.12946 -0.03527,-0.0294 0.03527,-0.0989 0,-0.12946 -0.07178,-0.0612 -0.232442,0.0612 -0.304239,0 -0.07588,-0.0647 -0.07588,-0.19419 -0.152412,-0.25892 -0.07588,-0.0647 -0.38073,0.0647 -0.456638,0 -0.03527,-0.0294 0.03527,-0.0989 0,-0.12946 -0.05303,-0.0412 -0.406042,-0.0859 -0.456651,-0.12947 -0.03527,-0.0294 0.03527,-0.0989 0,-0.12946 -0.07178,-0.0612 -0.232442,0.0612 -0.304823,0 -0.03527,-0.0294 0.03527,-0.0989 0,-0.12947 -0.0729,-0.0623 -0.514898,-0.17888 -0.609062,-0.25892 -0.03527,-0.0294 0.03527,-0.0988 0,-0.12946 -0.187707,-0.16006 -0.289522,0.1165 -0.304823,0.12946 -0.118854,0.10122 -0.264807,-0.11239 -0.304823,-0.12946 -0.09066,-0.0412 -0.232442,0.0612 -0.304227,0 -0.03527,-0.0294 0.03527,-0.0988 0,-0.12946 -0.0765,-0.0647 -0.509023,-0.0471 -0.609062,-0.12946 -0.03527,-0.0294 0.03527,-0.0989 0,-0.12946 -0.05291,-0.0412 -0.406041,-0.0859 -0.456638,-0.12946 -0.03527,-0.0294 0.03527,-0.0989 0,-0.12946 -0.02943,-0.0236 -0.428409,-0.10594 -0.456651,-0.12947 -0.03527,-0.0294 0.03527,-0.0989 0,-0.12946 -0.07178,-0.0612 -0.232442,0.0612 -0.304823,0 -0.03527,-0.0294 0.03527,-0.0989 0,-0.12946 -0.05291,-0.0412 -0.406041,-0.0859 -0.45665,-0.12946 -0.03527,-0.0294 0.03527,-0.0989 0,-0.12946 -0.0765,-0.0647 -0.509012,-0.0471 -0.609112,-0.12946 -0.100101,-0.0847 -0.09476,-0.29894 -0.304823,-0.38838 -0.09066,-0.0412 -0.232443,0.0612 -0.304239,0 -0.03527,-0.0294 0.03527,-0.0989 0,-0.12946 -0.230083,-0.19537 -0.114756,0.61541 -0.152412,0.64736 -0.07178,0.0612 -0.232442,-0.0612 -0.304227,0 -0.03527,0.0294 0.03527,0.0989 0,0.12946 -0.121835,0.10296 -0.601648,-0.0683 -0.761411,0 -0.06421,0.0294 -0.08768,0.10234 -0.152412,0.12946 -0.09178,0.0412 -0.38663,-0.06 -0.456651,0 -0.03527,0.0294 0.03527,0.0989 0,0.12946 -0.0765,0.0647 -0.38073,-0.0647 -0.45665,0 -0.03527,0.0294 0.03527,0.0989 0,0.12946 -0.07178,0.0612 -0.213602,-0.0412 -0.304823,0 -0.06408,0.0294 -0.08768,0.10234 -0.152412,0.12946 -0.09116,0.0412 -0.232442,-0.0612 -0.304823,0 -0.03527,0.0294 0.03527,0.0989 0,0.12946 -0.0765,0.0647 -0.509011,0.0471 -0.609111,0.12946 -0.03527,0.0294 0.03527,0.0989 0,0.12948 -0.0765,0.0647 -0.380731,-0.0647 -0.456651,0 -0.03527,0.0294 0.03527,0.0988 0,0.12946 -0.17771,0.15123 -0.888276,-0.15125 -1.065875,0 -0.03527,0.0294 0.03527,0.0988 0,0.12946 -0.04707,0.0412 -0.497249,0.0818 -0.609124,0.12946 -0.378967,0.16124 -0.759288,0.12946 -1.218174,0.12946 -0.170059,0 -0.43252,0.15005 -0.456638,0.12946 -0.251867,-0.2142 0.883693,-0.36309 0.913637,-0.38838 0.0765,-0.0647 0.05291,-0.43312 0.152411,-0.51786 0.0062,-0.006 0.448417,-0.25185 0.456651,-0.25892 0.0765,-0.0647 0.0765,-0.19419 0.152411,-0.25892 0.03527,-0.0294 0.116495,0.0294 0.152412,0 0.101839,-0.0864 -0.10184,-0.17242 0,-0.25892 0.03527,-0.0294 0.116494,0.0294 0.152411,0 0.142414,-0.12059 0.162422,-0.52667 0.304823,-0.64736 0.03527,-0.0294 0.116495,0.0294 0.152412,0 0.07178,-0.0612 -0.07179,-0.19773 0,-0.25894 0.03527,-0.0294 0.116494,0.0294 0.152411,0 0.07178,-0.0612 -0.07178,-0.19771 0,-0.25892 0.03527,-0.0294 0.116495,0.0294 0.152412,0 0.07178,-0.0612 -0.07179,-0.19771 0,-0.25892 0.0765,-0.0647 0.228319,-0.0647 0.304239,-0.12946 0.101218,-0.0864 -0.10184,-0.43134 0,-0.51785 0.07588,-0.0647 0.228319,-0.0647 0.304823,-0.12946 0.05936,-0.0529 0,-0.43899 0,-0.51784 0,-0.34543 -0.05303,0.0412 0.152411,-0.12946 0.0765,-0.0647 -0.0765,-0.32365 0,-0.38838 0.01118,-0.0112 0.340132,-0.0995 0.151816,-0.25894 -0.0236,-0.0235 -0.585515,-0.0235 -0.60905,0 -0.0765,0.0647 -0.0765,0.1942 -0.152412,0.25894 -0.10246,0.0864 -0.202437,-0.0866 -0.304239,0 -0.03527,0.0294 0.03527,0.0988 0,0.12946 -0.05291,0.0412 -0.406041,0.0859 -0.456651,0.12946 -0.03527,0.0294 0.03527,0.0988 0,0.12946 -0.07178,0.0612 -0.232442,-0.0612 -0.304823,0 -0.03527,0.0294 0.03527,0.0988 0,0.12946 -0.07178,0.0612 -0.232442,-0.0612 -0.304822,0 -0.03527,0.0294 0.03527,0.0989 0,0.12946 -0.10184,0.0864 -0.202425,-0.0864 -0.304227,0 -0.0765,0.0647 -0.0765,0.19419 -0.152412,0.25892 -0.101839,0.0864 -0.202437,-0.0864 -0.304239,0 -0.03527,0.0294 0.03527,0.0989 0,0.12946 -0.127101,0.10767 -0.481949,0.0236 -0.609112,0.12946 -0.03527,0.0294 0.03527,0.0989 0,0.12947 -0.03527,0.0294 -0.116494,-0.0294 -0.152411,0 -0.03527,0.0294 0.03527,0.0989 0,0.12946 -0.03527,0.0294 -0.116495,-0.0294 -0.152412,0 -0.03527,0.0294 0.03527,0.0989 0,0.12946 -0.02347,0.0235 -0.60171,0.12946 -0.761349,0.12946 -0.144761,0 -0.821671,0.0782 -0.913649,0 -0.01118,-0.0112 -0.01118,-0.37544 0,-0.38838 0.101839,-0.0866 0.202424,0.0866 0.304822,0 0.05291,-0.0471 0.147109,-0.38369 0.152412,-0.38839 0.0765,-0.0647 0.228319,-0.0647 0.304239,-0.12946 0.05291,-0.0412 0.101219,-0.34543 0.152412,-0.38838 0.03527,-0.0294 0.116494,0.0294 0.152411,0 0.154175,-0.13123 0,-1.08854 0,-1.29468 0,-0.0864 0.07179,-0.19772 0,-0.25892 -0.0062,-0.006 -0.448416,-0.25187 -0.456651,-0.25892 -0.07178,-0.0612 0.07178,-0.19773 0,-0.25892 -0.0765,-0.0647 -0.228319,-0.0647 -0.304823,-0.12948 -0.127113,-0.10767 -0.0236,-0.41015 -0.152411,-0.51784 -0.0765,-0.0647 -0.228319,-0.0647 -0.304239,-0.12946 -0.127101,-0.10767 -0.02347,-0.41016 -0.152412,-0.51784 -0.05291,-0.0471 -0.451347,-0.12475 -0.456638,-0.12947 -0.03527,-0.0294 0.03527,-0.0989 0,-0.12946 -0.0883,-0.0748 -0.520797,-0.18418 -0.609062,-0.25892 -0.0765,-0.0647 -0.0765,-0.19419 -0.152412,-0.25892 -0.07178,-0.0612 -0.232442,0.0612 -0.304823,0 -0.198313,-0.1683 0.400155,-0.1536 0.456651,-0.12946 0.499014,0.21183 0.121835,0.11649 -0.152411,0 -0.09116,-0.0412 -0.232443,0.0612 -0.304823,0 -0.03527,-0.0294 0.03527,-0.0989 0,-0.12946 -0.07179,-0.0612 -0.232443,0.0612 -0.304823,0 -0.0765,-0.0647 -0.0765,-0.1942 -0.152412,-0.25893 -0.07178,-0.0612 -0.213614,0.0412 -0.304823,0 -0.222444,-0.0941 -0.243632,-0.20714 -0.304823,-0.25893 -0.07004,-0.06 -0.364846,0.0412 -0.45665,0 -0.04123,-0.0176 -0.185957,-0.23066 -0.304823,-0.12946 -0.152412,0.12946 0,0.51785 -0.152412,0.64737 -0.03527,0.0294 -0.116494,-0.0294 -0.152411,0 -0.0037,0.004 -0.09824,0.34249 -0.152412,0.38839 -0.03527,0.0294 -0.116494,-0.0294 -0.152411,0 -0.07179,0.0612 0.07178,0.19772 0,0.25892 -0.03527,0.0294 -0.116495,-0.0294 -0.152412,0 -0.07178,0.0612 0.07178,0.19772 0,0.25892 -0.07588,0.0647 -0.228319,0.0647 -0.304239,0.12946 -0.05291,0.0412 -0.101839,0.34543 -0.152411,0.38839 -0.03527,0.0294 -0.116495,-0.0294 -0.152412,0 -0.07178,0.0612 0.07179,0.19772 0,0.25892 -0.03527,0.0294 -0.116494,-0.0294 -0.152411,0 -0.07178,0.0612 0.07178,0.19772 0,0.25892 -0.03527,0.0294 -0.116495,-0.0294 -0.152412,0 -0.05291,0.0412 -0.101839,0.34543 -0.152411,0.38839 -0.03527,0.0294 -0.116495,-0.0294 -0.152412,0 -0.07178,0.0612 0.04707,0.18183 0,0.25892 -0.05999,0.10184 -0.234789,0.45841 -0.304823,0.51785 -0.03527,0.0294 -0.116494,-0.0294 -0.152411,0 -0.07178,0.0612 0.04707,0.18183 0,0.25892 -0.120593,0.20479 -0.458998,0.32601 -0.60905,0.51784 -0.184789,0.23539 -0.32072,0.54551 -0.456651,0.77678 -0.31718,0.53903 0.0062,-0.13829 -0.304823,0.12946 -0.0062,0.006 -0.296588,0.38132 -0.304823,0.38838 -0.0765,0.0647 -0.228319,0.0647 -0.304239,0.12947 -0.03527,0.0294 0.03527,0.0989 0,0.12946 -0.005,0.004 -0.402502,0.0836 -0.456638,0.12946 -0.03527,0.0294 0.03527,0.0989 0,0.12946 -0.07998,0.0683 -0.224208,0.0612 -0.304823,0.12946 -0.07178,0.0612 0.07178,0.19772 0,0.25892 -0.03527,0.0294 -0.107056,-0.0176 -0.152411,0 -0.633666,0.26952 0.162992,-0.006 -0.152412,0.25892 -0.0062,0.006 -0.448417,0.25187 -0.456651,0.25894 -0.03527,0.0294 0.03527,0.0989 0,0.12946 -0.05291,0.0412 -0.406041,0.0859 -0.45665,0.12946 -0.03527,0.0294 0.03527,0.0989 0,0.12946 -0.0062,0.006 -0.448405,0.25185 -0.456639,0.25892 -0.03527,0.0294 0.03527,0.0989 0,0.12946 -0.03527,0.0294 -0.116494,-0.0294 -0.152411,0 -0.0765,0.0647 -0.0765,0.19419 -0.152412,0.25892 -0.07178,0.0612 -0.232442,-0.0612 -0.304239,0 -0.03527,0.0294 0.03527,0.0989 0,0.12946 -0.07178,0.0612 -0.232442,-0.0612 -0.304823,0 -0.03527,0.0294 0.03527,0.0989 0,0.12947 -0.07178,0.0612 -0.232442,-0.0612 -0.304823,0 -0.03531,0.0294 0.03531,0.0989 0,0.12946 -0.0765,0.0647 -0.380735,-0.0647 -0.456647,0 -0.03531,0.0294 0.03531,0.0989 0,0.12946 -0.07591,0.0647 -0.380734,-0.0647 -0.456645,0 -0.03531,0.0294 0.03531,0.0989 0,0.12946 -0.0718,0.0612 -0.232443,-0.0612 -0.304823,0 -0.03531,0.0294 0.03531,0.0989 0,0.12946 -0.0718,0.0612 -0.232443,-0.0612 -0.304823,0 -0.03531,0.0294 0.03531,0.0989 0,0.12946 -0.105342,0.09 -0.655842,0.0412 -0.761352,0.12946 -0.03531,0.0294 0.03531,0.0989 0,0.12946 -0.101803,0.0864 -0.202431,-0.0864 -0.304236,0 -0.03531,0.0294 0.03531,0.0989 0,0.12946 -0.0718,0.0612 -0.232442,-0.0612 -0.304823,0 -0.03531,0.0294 0.03531,0.0989 0,0.12947 -0.0718,0.0612 -0.232442,-0.0612 -0.304823,0 -0.03531,0.0294 0.03531,0.0988 0,0.12946 -0.121226,0.10357 -0.601643,-0.0683 -0.761352,0 -0.06415,0.0294 -0.08061,0.12947 -0.152411,0.12947 -0.157119,0 0.258334,-0.30953 0.304823,-0.3884 0.105329,-0.1783 -0.184188,-0.11587 0.152413,-0.25892 0.04707,-0.0176 0.116519,0.0294 0.152411,0 0.03531,-0.0294 -0.03531,-0.0988 0,-0.12946 0.03531,-0.0294 0.116519,0.0294 0.152411,0 0.0718,-0.0612 -0.0718,-0.19771 0,-0.25892 0.03531,-0.0294 0.11652,0.0294 0.152412,0 0.0865,-0.0735 0.09181,-0.67379 0.152411,-0.77677 0.02942,-0.0529 0.120047,-0.0748 0.152412,-0.12946 0.04708,-0.0782 -0.07002,-0.32836 0,-0.38838 0.03531,-0.0294 0.116519,0.0294 0.152411,0 0.100623,-0.0853 0.254215,-1.38142 0.304235,-1.4242 0.03531,-0.0294 0.116519,0.0294 0.152411,0 0.105329,-0.09 0.04708,-0.55786 0.152412,-0.64737 0.03531,-0.0294 0.116519,0.0294 0.151824,0 0.127106,-0.10767 -0.127108,-0.53962 0,-0.6473 0.03531,-0.0294 0.116519,0.0294 0.152411,0 0.0718,-0.0612 -0.04708,-0.18184 0,-0.25893 0.08886,-0.15065 0.215966,-0.23773 0.304823,-0.38838 0.04708,-0.0782 -0.07002,-0.32836 0,-0.38838 0.03531,-0.0294 0.116519,0.0294 0.152412,0 0.0765,-0.0647 -0.07591,-0.32367 0,-0.3884 0.03531,-0.0294 0.116519,0.0294 0.152411,0 0.0718,-0.0612 -0.04708,-0.18183 0,-0.25892 0.02942,-0.0529 0.120046,-0.0748 0.152411,-0.12946 0.190663,-0.32365 -0.04708,-1.60661 0.152412,-1.94204 0.02942,-0.0529 0.120046,-0.0748 0.152411,-0.12946 0.144174,-0.24598 -0.219496,-0.97849 0,-1.16522 0.03531,-0.0294 0.11652,0.0294 0.152412,0 0.02942,-0.0294 0.02942,-0.62112 0,-0.64736 -0.03531,-0.0294 -0.116519,0.0294 -0.152412,0 -0.0718,-0.0612 0.0718,-0.19772 0,-0.25892 -0.03531,-0.0294 -0.116519,0.0294 -0.152411,0 -0.177715,-0.15123 0.177716,-0.75523 0,-0.90629 -0.03531,-0.0294 -0.116519,0.0294 -0.152412,0 -0.03531,-0.0294 0.02354,-0.0907 0,-0.12946 -0.316592,-0.53904 0.0058,0.13828 -0.304234,-0.12947 -0.05296,-0.0412 -0.101802,-0.34542 -0.152411,-0.38838 -0.03531,-0.0294 -0.11652,0.0294 -0.152412,0 -0.07003,-0.06 0.04707,-0.31011 0,-0.38838 -0.08886,-0.15065 -0.215965,-0.23775 -0.304824,-0.38838 -0.04708,-0.0771 0.0718,-0.19773 0,-0.25894 -0.03531,-0.0294 -0.116519,0.0294 -0.152411,0 -0.03531,-0.0294 0.03531,-0.0988 0,-0.12946 -0.0058,-0.006 -0.448407,-0.25185 -0.456646,-0.25892 -0.0718,-0.0612 0.0718,-0.19771 0,-0.25892 -0.03531,-0.0294 -0.116519,0.0294 -0.152412,0 -0.05296,-0.0412 -0.101218,-0.34543 -0.152411,-0.38838 -0.0058,-0.006 -0.448408,-0.25186 -0.456647,-0.25893 -0.03531,-0.0294 0.03531,-0.0989 0,-0.12946 -0.03531,-0.0294 -0.107105,0.0176 -0.152412,0 -0.210079,-0.0894 -0.205373,-0.30364 -0.304822,-0.38838 -0.03531,-0.0294 -0.11652,0.0294 -0.152412,0 -0.08826,-0.0748 -0.216554,-0.44312 -0.304823,-0.51784 -0.0058,-0.006 -0.448408,-0.25187 -0.456646,-0.25894 -0.0765,-0.0647 -0.05296,-0.4331 -0.152411,-0.51784 -0.09357,-0.0795 -0.354842,-0.0853 -0.456647,-0.25892 -0.09062,-0.15417 -0.167122,-0.53021 -0.304823,-0.64731 -0.08003,-0.0683 -0.224203,-0.0612 -0.304823,-0.12946 -0.03531,-0.0294 0.03531,-0.0989 0,-0.12946 -0.03531,-0.0294 -0.116519,0.0294 -0.152411,0 -0.08062,-0.0683 -0.376617,-0.57905 -0.456647,-0.64737 -0.09357,-0.0795 -0.354843,-0.0853 -0.456646,-0.25892 -0.07296,-0.12419 -0.101219,-0.60406 -0.152412,-0.64737 -0.03531,-0.0294 -0.116519,0.0294 -0.152411,0 -0.0718,-0.0612 0.0718,-0.19772 0,-0.25892 -0.20302,-0.17242 -0.152412,0.21597 -0.152412,-0.12947 0,-0.34542 0.05296,0.0412 -0.152411,-0.12946 -0.0718,-0.0612 0.04708,-0.18183 0,-0.25892 -0.111216,-0.1889 -0.243624,-0.20714 -0.304823,-0.25892 -0.03531,-0.0294 0.03531,-0.0989 0,-0.12946 -0.03531,-0.0294 -0.116519,0.0294 -0.152412,0 -0.0718,-0.0612 0.0718,-0.19773 0,-0.25893 -0.03531,-0.0294 -0.116519,0.0294 -0.152411,0 -0.03531,-0.0294 0.02354,-0.0907 0,-0.12946 -0.06415,-0.10942 -0.240093,-0.15005 -0.304236,-0.25892 -0.02353,-0.0412 0.05296,-0.12946 0,-0.12946 -0.05296,0 0.03531,0.0989 0,0.12946 -0.115339,0.0982 -0.850798,-0.20537 -0.913703,-0.25892 -0.05296,-0.0471 -0.147116,-0.38368 -0.151823,-0.38838 -0.03531,-0.0294 -0.116519,0.0294 -0.152413,0 -0.03531,-0.0294 0.03531,-0.0989 0,-0.12948 -0.03531,-0.0294 -0.116519,0.0294 -0.152411,0 -0.03531,-0.0294 0.02353,-0.0907 0,-0.12946 -0.317181,-0.53902 0.0058,0.13829 -0.304823,-0.12946 -0.03531,-0.0294 0.03531,-0.0989 0,-0.12946 -0.0058,-0.006 -0.448408,-0.25185 -0.456646,-0.25892 -0.03531,-0.0294 0.03531,-0.0989 0,-0.12946 -0.07356,-0.0623 -0.514904,-0.17889 -0.609058,-0.25892 -0.0718,-0.0612 0.0718,-0.19773 0,-0.25893 -0.03531,-0.0294 -0.11652,0.0294 -0.152412,0 -0.0718,-0.0612 0.0718,-0.19772 0,-0.25892 -0.03531,-0.0294 -0.116519,0.0294 -0.152411,0 -0.05296,-0.0412 -0.101803,-0.34542 -0.152412,-0.38838 -0.03531,-0.0294 -0.116519,0.0294 -0.152411,0 -0.05296,-0.0471 -0.147116,-0.38368 -0.152412,-0.38838 -0.0058,-0.006 -0.448408,-0.25187 -0.456646,-0.25894 -0.127108,-0.10767 -0.02353,-0.41015 -0.152411,-0.51784 -0.0765,-0.0647 -0.228324,-0.0647 -0.304824,-0.12946 -0.127107,-0.1083 -0.120047,-1.00862 -0.152412,-1.03576 -0.03531,-0.0294 -0.116519,0.0294 -0.152411,0 -0.101219,-0.0859 0.101218,-0.173 0,-0.25892 -0.03531,-0.0294 -0.116519,0.0294 -0.152412,0 -0.0718,-0.0612 0.0718,-0.19771 0,-0.25892 -0.03531,-0.0294 -0.116519,0.0294 -0.152411,0 -0.0718,-0.0612 0.101802,-0.25892 0,-0.25892 -0.05296,0 0.03531,0.0989 0,0.12946 -0.07591,0.0647 -0.228323,0.0647 -0.304823,0.12946 -0.03531,0.0294 0.03531,0.0989 0,0.12946 -0.0718,0.0612 -0.232442,-0.0612 -0.304234,0 -0.03531,0.0294 0.03531,0.0989 0,0.12946 -0.0765,0.0647 -0.380736,-0.0647 -0.456647,0 -0.03531,0.0294 0.03531,0.0989 0,0.12946 -0.0765,0.0647 -0.380735,-0.0647 -0.456646,0 -0.03531,0.0294 0.03531,0.0989 0,0.12946 -0.0118,0.0112 -0.441346,0.0112 -0.456646,0 -0.248919,-0.21183 0.302468,-1.29655 0.151823,-1.42418 -0.03531,-0.0294 -0.116519,0.0294 -0.151823,0 -0.09415,-0.08 -0.231266,-0.45547 -0.304235,-0.51786 -0.0043,-0.004 -0.402508,-0.0836 -0.456646,-0.12946 -0.09651,-0.0823 0.06355,-0.41015 0,-0.51784 -0.02942,-0.0529 -0.120046,-0.0748 -0.152412,-0.12946 -0.04708,-0.0782 0.07003,-0.32836 0,-0.38838 -0.03531,-0.0294 -0.116519,0.0294 -0.152411,0 -0.0718,-0.0612 0.0718,-0.19773 0,-0.25893 -0.0765,-0.0647 -0.228324,-0.0647 -0.304823,-0.12946 -0.0765,-0.0647 0.0765,-0.32365 0,-0.38838 -0.03531,-0.0294 -0.116519,0.0294 -0.152413,0 -0.05296,-0.0412 -0.101802,-0.34543 -0.152411,-0.38839 -0.0765,-0.0647 -0.228323,-0.0647 -0.304823,-0.12946 -0.0718,-0.0612 0.0718,-0.19773 0,-0.25893 -0.05296,-0.0412 -0.406038,-0.0859 -0.456646,-0.12946 -0.0718,-0.0612 0.0718,-0.19772 0,-0.25892 -0.03531,-0.0294 -0.116519,0.0294 -0.152411,0 -0.03531,-0.0294 0.03531,-0.0989 0,-0.12946 -0.0058,-0.006 -0.448408,-0.25187 -0.456647,-0.25892 -0.03531,-0.0294 0.03531,-0.0989 0,-0.12946 -0.0765,-0.0647 -0.228323,-0.0647 -0.304823,-0.12946 -0.0718,-0.0612 0.0718,-0.19773 0,-0.25894 -0.0765,-0.0647 -0.228323,-0.0647 -0.304235,-0.12946 -0.0718,-0.0612 0.0718,-0.19771 0,-0.25892 -0.0058,-0.006 -0.448407,-0.25185 -0.456645,-0.25892 -0.101219,-0.0859 0.101218,-0.173 0,-0.25892 -0.0765,-0.0647 -0.228324,-0.0647 -0.304824,-0.12946 -0.0718,-0.0612 0.0718,-0.19773 0,-0.25893 -0.03531,-0.0294 -0.11652,0.0294 -0.151823,0 -0.03531,-0.0294 0.03531,-0.0989 0,-0.12946 -0.314827,-0.26775 0.0118,0.40957 -0.304823,-0.12946 -0.02354,-0.0412 0.03531,-0.0989 0,-0.12946 -0.03531,-0.0294 -0.116519,0.0294 -0.152412,0 -0.03531,-0.0294 0.03531,-0.0989 0,-0.12946 -0.03531,-0.0294 -0.116519,0.0294 -0.152411,0 -0.0718,-0.0612 0.0718,-0.19772 0,-0.25892 -0.03531,-0.0294 -0.116519,0.0294 -0.152412,0 -0.02942,-0.0294 -0.02942,-0.62112 0,-0.64732 0.03531,-0.0294 0.11652,0.0294 0.152412,0 0.0718,-0.0612 -0.0718,-0.19771 0,-0.25892 0.12299,-0.10469 1.024511,0 1.218234,0 0.101802,0 0.232442,-0.0612 0.304234,0 0.03531,0.0294 -0.03531,0.0989 0,0.12946 0.0043,0.004 0.402508,0.0836 0.456646,0.12946 0.03531,0.0294 -0.03531,0.0989 0,0.12946 0.0765,0.0647 0.380735,-0.0647 0.456647,0 0.03531,0.0294 -0.03531,0.0989 0,0.12948 0.0718,0.0612 0.232442,-0.0612 0.304234,0 0.03531,0.0294 -0.03531,0.0988 0,0.12946 0.0765,0.0647 0.509607,0.0471 0.609117,0.12946 0.03531,0.0294 -0.03531,0.0989 0,0.12946 0.0718,0.0612 0.232442,-0.0612 0.304823,0 0.03531,0.0294 -0.03531,0.0989 0,0.12946 0.09415,0.0806 0.536088,0.19713 0.609057,0.25892 0.03531,0.0294 -0.03531,0.0989 0,0.12946 0.0718,0.0612 0.232442,-0.0612 0.304824,0 0.0765,0.0647 0.0765,0.19419 0.152411,0.25892 0.05296,0.0412 0.406038,0.0866 0.456646,0.12947 0.03531,0.0294 -0.03531,0.0989 0,0.12946 0.0718,0.0612 0.232443,-0.0612 0.304823,0 0.0765,0.0647 0.0765,0.19419 0.152412,0.25892 0.0718,0.0612 0.232442,-0.0612 0.304823,0 0.314826,0.26775 -0.481362,-0.0112 0.152411,0.25892 0.126519,0.0529 0.512551,-0.0823 0.609117,0 0.07591,0.0647 0.07591,0.19419 0.152411,0.25892 0.0718,0.0612 0.232443,-0.0612 0.304823,0 0.20302,0.17242 -0.253626,0.12946 0.152413,0.12946 0.02354,0 0.733458,0.36485 0.761351,0.3884 0.03531,0.0294 -0.03531,0.0989 0,0.12946 0.03531,0.0294 0.101802,0 0.152411,0 0.05296,0 0.116519,-0.0294 0.152412,0 0.03531,0.0294 -0.03531,0.0989 0,0.12946 0.0058,0.006 0.448408,0.25185 0.456647,0.25892 0.03531,0.0294 -0.03531,0.0989 0,0.12946 0.127108,0.10768 0.48195,0.0235 0.609116,0.12946 0.356019,0.30306 -0.356608,-0.0412 0,0.25892 0.127107,0.10768 0.48195,0.0236 0.609058,0.12947 0.03531,0.0294 -0.03531,0.0989 0,0.12946 0.03531,0.0294 0.116519,-0.0294 0.152411,0 0.0765,0.0647 0.0765,0.19419 0.151823,0.25892 0.0765,0.0647 0.228324,0.0647 0.304824,0.12946 0.03531,0.0294 -0.03531,0.0989 0,0.12947 0.152412,0.12946 0.609057,0 0.761351,0.12946 0.0058,0.006 0.296585,0.38132 0.304824,0.38838 0.03531,0.0294 0.116519,-0.0294 0.152412,0 0.03531,0.0294 -0.03531,0.0989 0,0.12947 0.05296,0.0412 0.406037,0.0859 0.456645,0.12946 0.03531,0.0294 -0.03531,0.0989 0,0.12946 0.0718,0.0612 0.232443,-0.0612 0.304823,0 0.0765,0.0647 0.0765,0.19419 0.152412,0.25892 0.0765,0.0647 0.228323,0.0647 0.304823,0.12946 0.03531,0.0294 -0.03531,0.0989 0,0.12946 0.03531,0.0294 0.101802,0 0.152411,0 0.05296,0 0.116519,-0.0294 0.151824,0 0.0765,0.0647 0.0765,0.19419 0.152412,0.25892 0.0058,0.006 0.448408,0.25187 0.456645,0.25892 0.03531,0.0294 -0.03531,0.0989 0,0.12948 0.104162,0.0883 0.853211,0.33718 0.913646,0.38838 0.08003,0.0683 0.0718,0.19066 0.151823,0.25892 0.217731,0.18536 0.643248,0.28776 0.761352,0.38838 0.0058,0.006 0.296585,0.38132 0.304822,0.38839 0.0718,0.0612 0.232443,-0.0612 0.304823,0 0.03531,0.0294 -0.03531,0.0989 0,0.12946 0.0058,0.006 0.448408,0.25186 0.456647,0.25892 0.03531,0.0294 -0.03531,0.0989 0,0.12946 0.03531,0.0294 0.11652,-0.0294 0.152412,0 0.03531,0.0294 -0.03531,0.0989 0,0.12946 0.0718,0.0612 0.232442,-0.0612 0.304823,0 0.0058,0.006 0.296585,0.38133 0.304234,0.38838 0.03531,0.0294 0.116519,-0.0294 0.152412,0 0.0718,0.0612 -0.0718,0.19773 0,0.25894 0.03531,0.0294 0.116519,-0.0294 0.152412,0 0.09357,0.0795 0.100623,0.30188 0.304823,0.38838 0.09415,0.0412 0.552565,0.0818 0.609117,0.12946 0.0058,0.006 0.296584,0.38133 0.304823,0.38838 0.314827,0.26775 -0.0118,-0.40957 0.304823,0.12946 0.02353,0.0412 -0.03531,0.0989 0,0.12947 0.0718,0.0612 0.232442,-0.0612 0.304823,0 0.03531,0.0294 -0.03531,0.0989 0,0.12946 0.05296,0.0412 0.406039,0.0859 0.456646,0.12946 0.03531,0.0294 -0.03531,0.0989 0,0.12946 0.03531,0.0294 0.116519,-0.0294 0.152411,0 0.03531,0.0294 -0.03531,0.0989 0,0.12946 0.03531,0.0294 0.116519,-0.0294 0.152412,0 0.03531,0.0294 -0.03531,0.0989 0,0.12946 0.03531,0.0294 0.116519,-0.0294 0.152412,0 0.03531,0.0294 -0.03531,0.0989 0,0.12946 0.03531,0.0294 0.116507,-0.0294 0.152417,0 0.03527,0.0294 -0.03527,0.0989 0,0.12946 0.03527,0.0294 0.116494,-0.0294 0.151815,0 0.03527,0.0294 -0.02347,0.0907 0,0.12947 0.31718,0.53902 -0.0062,-0.13828 0.304823,0.12946 0.03527,0.0294 -0.03527,0.0988 0,0.12947 0.03527,0.0294 0.116494,-0.0294 0.152412,0 0.09066,0.0771 0.08942,0.15241 0.152411,0.25892 0.316597,0.53903 -0.0062,-0.13829 0.304239,0.12946 0.0062,0.006 0.296589,0.38133 0.304823,0.38838 0.03527,0.0294 0.116495,-0.0294 0.152412,0 0.0883,0.0754 0.215961,0.44311 0.304226,0.51785 0.0062,0.006 0.448417,0.25186 0.456651,0.25892 0.03527,0.0294 -0.03527,0.0989 0,0.12946 0.0883,0.0748 0.520785,0.18419 0.609124,0.25893 0.0765,0.0647 0.0765,0.19419 0.152412,0.25892 0.0765,0.0647 0.228319,0.0647 0.304823,0.12946 0.05291,0.0412 0.101839,0.34543 0.152411,0.38839 0.03527,0.0294 0.116495,-0.0294 0.152412,0 0.0062,0.006 0.296576,0.38131 0.304823,0.38838 0.09352,0.0795 0.354836,0.0853 0.456638,0.25892 0.06297,0.10656 0.06185,0.18183 0.151828,0.25892 0.03527,0.0294 0.116494,-0.0294 0.152411,0 0.03527,0.0294 -0.03527,0.0989 0,0.12946 0.03527,0.0294 0.116495,-0.0294 0.152412,0 0.1271,0.10768 0.0236,0.41017 0.152411,0.51786 0.03527,0.0294 0.116495,-0.0294 0.152412,0 0.0062,0.006 0.296589,0.38132 0.304227,0.38838 0.05291,0.0412 0.406041,0.0859 0.45665,0.12946 0.127113,0.10767 0.0236,0.41016 0.152412,0.51785 0.03527,0.0294 0.107055,-0.0176 0.152411,0 0.241857,0.10234 0.356016,0.43252 0.456651,0.51784 0.03527,0.0294 0.116494,-0.0294 0.152411,0 0.133584,0.11364 0.323651,0.66331 0.456639,0.77678 0.0062,0.006 0.448416,0.25185 0.45665,0.25892 0.559633,0.47606 -0.55962,-0.21714 0,0.25892 0.0062,0.006 0.448405,0.25187 0.456651,0.25892 0.03527,0.0294 -0.03527,0.0989 0,0.12946 0.03527,0.0294 0.116495,-0.0294 0.152412,0 0.09352,0.0795 0.100597,0.30188 0.304823,0.38839 0.09066,0.0412 0.232442,-0.0612 0.304822,0 0.03527,0.0294 -0.03527,0.0989 0,0.12946 0.122953,0.1047 1.024456,0 1.218174,0 0.10184,0 0.232443,0.0612 0.304823,0 0.0765,-0.0647 0.0765,-0.19419 0.152412,-0.25893 0.07178,-0.0612 0.213614,0.0412 0.304823,0 0.222432,-0.0948 0.24362,-0.20713 0.304227,-0.25892 0.07178,-0.0612 0.232442,0.0612 0.304823,0 0.0765,-0.0647 0.0765,-0.19419 0.152411,-0.25892 0.07179,-0.0612 0.232443,0.0612 0.304239,0 0.127113,-0.10768 -0.1271,-0.53961 0,-0.6473 0.005,-0.004 0.402515,-0.0836 0.456651,-0.12948 0.127101,-0.10767 -0.127113,-0.53961 0,-0.64736 0.03527,-0.0294 0.116494,0.0294 0.152412,0 0.04123,-0.0353 0.04123,-0.8688 0,-0.90628 -0.03527,-0.0294 -0.116495,0.0294 -0.152412,0 -0.05949,-0.053 0,-0.43899 0,-0.51786 0,-0.0859 -0.07178,-0.19771 0,-0.25892 0.0236,-0.0235 0.585515,-0.0235 0.609112,0 0.03527,0.0294 -0.03527,0.0989 0,0.12946 0.101218,0.0859 0.507844,-0.0864 0.609124,0 0.03527,0.0294 -0.03527,0.0989 0,0.12946 0.10184,0.0859 0.507248,-0.0859 0.608988,0 0.03527,0.0294 -0.03527,0.0989 0,0.12948 0.07178,0.0612 0.232442,-0.0612 0.304823,0 0.0765,0.0647 0.0765,0.19419 0.152411,0.25892 0.07178,0.0612 0.232443,-0.0612 0.30424,0 0.03527,0.0294 -0.03527,0.0988 0,0.12946 0.0765,0.0647 0.38073,-0.0647 0.45665,0 0.03527,0.0294 -0.03527,0.0989 0,0.12946 0.03527,0.0294 0.10184,0 0.152412,0 0.05291,0 0.116494,-0.0294 0.152411,0 0.0765,0.0647 0.0765,0.19419 0.152412,0.25892 0.05291,0.0412 0.406029,0.0859 0.456638,0.12946 0.03527,0.0294 -0.03527,0.0989 0,0.12946 0.03527,0.0294 0.116494,-0.0294 0.152411,0 0.03527,0.0294 -0.03527,0.0989 0,0.12946 0.0062,0.006 0.448417,0.25186 0.456651,0.25893 0.03527,0.0294 -0.03527,0.0989 0,0.12946 0.07179,0.0612 0.232443,-0.0612 0.304823,0 0.07588,0.0647 0.07588,0.19419 0.152412,0.25892 0.07178,0.0612 0.232442,-0.0612 0.304822,0 0.03527,0.0294 -0.03527,0.0989 0,0.12946 0.184777,0.15712 1.000387,-0.25892 1.218112,-0.25892 0.169476,0 0.95826,-0.0912 1.065949,0 0.03527,0.0294 -0.03527,0.0989 0,0.12946 0.0236,0.0176 1.787383,0 1.979524,0 0.06297,0 0.416623,0.0353 0.456638,0 0.03527,-0.0294 -0.03527,-0.0989 0,-0.12946 0.08656,-0.0735 0.792485,-0.0776 0.913649,-0.12946 0.177723,-0.0754 0.279525,-0.18361 0.456651,-0.25893 0.09116,-0.0412 0.232442,0.0612 0.304823,0 0.03527,-0.0294 -0.03527,-0.0989 0,-0.12946 0.07178,-0.0612 0.232442,0.0612 0.304823,0 0.03527,-0.0294 -0.03527,-0.0989 0,-0.12946 0.07178,-0.0612 0.232442,0.0612 0.304227,0 0.03527,-0.0294 -0.03527,-0.0989 0,-0.12946 0.127113,-0.10768 0.634484,0.10767 0.761362,0 0.03527,-0.0294 -0.03527,-0.0989 0,-0.12946 0.07178,-0.0612 0.304823,-0.0866 0.304823,0 0,0.18359 -0.256574,0.12946 0.152411,0.12946 0.174766,0 0.623407,0.0589 0.761349,0 0.04707,-0.0176 -0.03527,-0.0989 0,-0.12946 0.06297,-0.0529 1.247186,-0.0236 1.370462,-0.12946 0.03527,-0.0294 -0.03527,-0.0989 0,-0.12946 0.177722,-0.15123 0.888288,0.15123 1.065949,0 0.03527,-0.0294 -0.03527,-0.0989 0,-0.12946 0.03527,-0.0294 0.152411,0.0412 0.152411,0 0,-0.0294 -0.718105,0.0353 -0.761362,0 -0.03527,-0.0294 0.03527,-0.0989 0,-0.12946 -0.03527,-0.0294 -0.116494,0.0294 -0.152411,0 -0.03527,-0.0294 0.03527,-0.0989 0,-0.12946 -0.0236,-0.0236 -0.583752,-0.28011 -0.456639,-0.3884 0.07303,-0.0623 1.060696,0.004 1.218175,-0.12946 0.03527,-0.0294 -0.03527,-0.0989 0,-0.12946 0.0883,-0.0748 0.520784,-0.18419 0.609111,-0.25892 0.03527,-0.0294 -0.03527,-0.0989 0,-0.12946 0.07178,-0.0612 0.232443,0.0612 0.30424,0 0.03527,-0.0294 0.05291,-0.12946 0,-0.12946 -0.273054,0 0.232442,0.12946 0.304823,0.12946 0.357195,0 -0.07178,0.0294 0.304823,-0.12946 0.09178,-0.0412 0.386617,0.06 0.456638,0 0.03527,-0.0294 -0.03527,-0.0989 0,-0.12946 0.07178,-0.0612 0.232442,0.0612 0.304239,0 0.0765,-0.0647 0.0765,-0.1942 0.152412,-0.25893 0.0765,-0.0647 0.228319,-0.0647 0.304239,-0.12946 0.1271,-0.10768 0.0236,-0.41016 0.152411,-0.51784 0.03527,-0.0294 0.116495,0.0294 0.152412,0 0.0765,-0.0647 -0.0765,-0.32366 0,-0.38839 0.03527,-0.0294 0.116494,0.0294 0.152411,0 0.0765,-0.0647 -0.0765,-0.32366 0,-0.38839 0.03527,-0.0294 0.116495,0.0294 0.152412,0 0.121213,-0.10358 -0.07948,-0.51137 0,-0.64736 0.02943,-0.0529 0.120096,-0.0748 0.152411,-0.12946 0.04707,-0.0782 -0.07005,-0.32836 0,-0.38838 0.03527,-0.0294 0.116495,0.0294 0.152412,0 0.228319,-0.19419 -0.228332,-0.97103 0,-1.16522 0.232442,-0.19772 0.152411,0.28599 0.152411,0.12946 0,-1.01168 0.152412,-1.85507 0.152412,-2.84833 0,-0.1889 -0.02347,-1.92145 0,-1.94204 0.03527,-0.0294 0.116494,0.0294 0.152411,0 0.127697,-0.1083 0.0062,-0.65443 0.152411,-0.77682 0.07588,-0.0647 0.22832,-0.0647 0.304227,-0.12948 0.07178,-0.0612 -0.07178,-0.19771 0,-0.25892 0.03527,-0.0294 0.116495,0.0294 0.152412,0 0.117736,-0.1001 0.05999,-0.49018 0.152411,-0.64736 0.111279,-0.1889 0.243633,-0.20714 0.304823,-0.25892 0.07178,-0.0612 -0.07178,-0.19773 0,-0.25892 0.03527,-0.0294 0.116495,0.0294 0.152424,0 0.07588,-0.0647 -0.07588,-0.32366 0,-0.3884 0.06061,-0.0529 0.193594,-0.07 0.304227,-0.25892 0.04707,-0.0771 -0.07178,-0.19771 0,-0.25892 0.03527,-0.0294 0.116494,0.0294 0.152411,0 0.05303,-0.0412 0.07949,-0.52314 0.152412,-0.64736 0.167128,-0.28423 0.439586,0.0112 0.609062,-0.12946 0.03527,-0.0294 -0.03527,-0.0989 0,-0.12947 0.142401,-0.12122 0.838201,0.0653 0.913699,0.12947 0.03527,0.0294 -0.03527,0.0989 0,0.12946 0.07178,0.0612 0.232442,-0.0612 0.304239,0 0.03527,0.0294 -0.03527,0.0989 0,0.12946 0.05291,0.0412 0.406042,0.0864 0.456651,0.12946 0.03527,0.0294 -0.03527,0.0989 0,0.12946 0.07178,0.0612 0.232442,-0.0612 0.304823,0 0.03527,0.0294 -0.03527,0.0989 0,0.12946 0.09352,0.0795 0.354836,0.0853 0.456638,0.25892 0.02347,0.0412 -0.03527,0.0989 0,0.12946 0.07005,0.06 0.364846,-0.0412 0.456651,0 0.320123,0.13595 -0.0037,0.25658 0.151815,0.3884 0.0765,0.0647 0.228332,0.0647 0.304823,0.12946 0.03527,0.0294 -0.03527,0.0988 0,0.12946 0.0062,0.006 0.448417,0.25185 0.456651,0.25892 0.07178,0.0612 -0.07179,0.19771 0,0.25892 0.07588,0.0647 0.228319,0.0647 0.304827,0.12946 0.0765,0.0647 -0.07651,0.32366 0,0.38839 0.0353,0.0294 0.11649,-0.0294 0.15241,0 0.0718,0.0612 -0.0718,0.19772 0,0.25892 0.0353,0.0294 0.11649,-0.0294 0.15241,0 0.50726,0.43134 -0.507249,-0.17242 0,0.25892 0.0353,0.0294 0.11649,-0.0294 0.15241,0 0.0353,0.0294 -0.0353,0.0989 0,0.12946 0.0612,0.053 0.19361,0.07 0.30482,0.25892 0.0471,0.0771 -0.0718,0.19773 0,0.25894 0.0353,0.0294 0.1165,-0.0294 0.15241,0 0.0765,0.0647 0.053,0.4331 0.15242,0.51784 0.0353,0.0294 0.11649,-0.0294 0.15241,0 0.006,0.006 0.29659,0.38132 0.30482,0.38838 0.0353,0.0294 0.11649,-0.0294 0.15241,0 0.10122,0.0859 -0.10184,0.17301 0,0.25892 0.0353,0.0294 0.10706,-0.0176 0.15183,0 0.22067,0.0941 0.17418,0.40664 0.30423,0.51785 0.0353,0.0294 0.11649,-0.0294 0.15241,0 0.0765,0.0647 -0.0765,0.32365 0,0.38838 0.14183,0.1206 0.15241,-0.0112 0.15241,0.25893 0,0.34543 -0.0529,-0.0412 0.15241,0.12946 0.12121,0.10357 -0.0795,0.51138 0,0.64737 0.0294,0.0529 0.1201,0.0748 0.15241,0.12946 0.0636,0.10768 -0.0965,0.43547 0,0.51784 0.0353,0.0294 0.1165,-0.0294 0.15241,0 0.0789,0.0671 0.13124,1.14715 0.15242,1.16522 0.0353,0.0294 0.11649,-0.0294 0.15241,0 0.10122,0.0859 -0.10184,0.43134 0,0.51784 0.0353,0.0294 0.11649,-0.0294 0.15241,0 0.0718,0.0612 -0.0718,0.19773 0,0.25892 0.0353,0.0294 0.11649,-0.0294 0.15241,0 0.40604,0.34484 -0.40603,-0.0859 0,0.25894 0.0353,0.0294 0.11649,-0.0294 0.15241,0 0.10122,0.0859 -0.10122,0.173 0,0.25892 0.0353,0.0294 0.1165,-0.0294 0.15243,0 0.0718,0.0612 -0.0718,0.19771 0,0.25892 0.0353,0.0294 0.11649,-0.0294 0.15241,0 0.07,0.06 -0.0471,0.31011 0,0.38838 0.0294,0.0529 0.11997,0.0748 0.15241,0.12946 0.0471,0.0771 -0.0718,0.19773 0,0.25893 0.0353,0.0294 0.11649,-0.0294 0.15241,0 0.0718,0.0612 -0.0718,0.19772 0,0.25892 0.0353,0.0294 0.11649,-0.0294 0.15241,0 0.0765,0.0647 -0.0765,0.32365 0,0.38838 0.0353,0.0294 0.1165,-0.0294 0.15241,0 0.0765,0.0647 -0.0765,0.32365 0,0.38838 0.0353,0.0294 0.1165,-0.0294 0.15241,0 0.1271,0.10768 -0.12711,0.53963 0,0.64738 0.0353,0.0294 0.1165,-0.0294 0.15242,0 0.0718,0.0612 -0.0718,0.19772 0,0.25892 0.0353,0.0294 0.11649,-0.0294 0.15241,0 0.60964,0.51844 -0.60971,-0.25952 0,0.25892 0.0353,0.0294 0.11649,-0.0294 0.15181,0 0.0353,0.0294 0.0353,0.0989 0,0.12946 -0.0353,0.0294 -0.15181,-0.0412 -0.15181,0 0,0.22479 0.67326,0.18419 0.76135,0.25892 0.0353,0.0294 -0.0353,0.0989 0,0.12946 0.50724,0.43136 -0.20302,-0.43134 0.30482,0 0.0353,0.0294 -0.0353,0.0989 0,0.12946 0.0718,0.0612 0.23244,-0.0612 0.30423,0 0.0353,0.0294 -0.0353,0.0989 0,0.12948 0.0718,0.0612 0.23244,-0.0612 0.30482,0 0.0353,0.0294 -0.0353,0.0989 0,0.12946 0.0812,0.0694 1.03264,0.0529 1.21817,0.12946 0.2195,0.0935 0.38956,0.16535 0.60907,0.25892 0.0907,0.0412 0.232442,-0.0612 0.304822,0 0.0606,0.0529 0.0823,0.16477 0.30482,0.25892 0.16006,0.0683 0.63978,-0.10358 0.76135,0 0.0353,0.0294 -0.0353,0.0989 0,0.12946 0.07,0.06 0.36485,-0.0412 0.45665,0 0.2195,0.0935 0.38956,0.16536 0.60911,0.25892 0.0918,0.0412 0.38662,-0.06 0.45665,0 0.0353,0.0294 -0.0353,0.0989 0,0.12947 0.0759,0.0647 0.38073,-0.0647 0.45665,0 0.0353,0.0294 -0.0353,0.0989 0,0.12946 0.0718,0.0612 0.21361,-0.0412 0.30423,0 0.0641,0.0294 0.0883,0.10234 0.15241,0.12946 0.0912,0.0412 0.23245,-0.0612 0.30483,0 0.0353,0.0294 -0.0353,0.0989 0,0.12946 0.15006,0.1277 0.65037,0.0353 0.76135,0.12946 0.0353,0.0294 -0.0353,0.0989 0,0.12946 0.0718,0.0612 0.21361,-0.0412 0.30482,0 0.22186,0.0948 0.24363,0.20715 0.30482,0.25892 0.17772,0.15124 0.88829,-0.15123 1.06589,0 0.006,0.006 0.29659,0.38133 0.30482,0.3884 0.0718,0.0612 0.21362,-0.0412 0.30424,0 0.22185,0.0941 0.24362,0.20713 0.30482,0.25892 0.0718,0.0612 0.23245,-0.0612 0.30483,0 0.0353,0.0294 -0.0353,0.0989 0,0.12946 0.0718,0.0612 0.2136,-0.0412 0.30482,0 0.0641,0.0294 0.0883,0.10233 0.15241,0.12946 0.0907,0.0412 0.23244,-0.0612 0.30482,0 0.0353,0.0294 -0.0353,0.0989 0,0.12946 0.0765,0.0647 0.38073,-0.0647 0.45664,0 0.0353,0.0294 -0.0353,0.0989 0,0.12946 0.0718,0.0612 0.21362,-0.0412 0.30424,0 0.11948,0.0529 0.53903,0.19949 0.60911,0.25892 0.0353,0.0294 -0.0353,0.0989 0,0.12946 0.1277,0.1083 0.76971,0.006 0.91365,0.12947 0.0353,0.0294 -0.0353,0.0989 0,0.12946 0.0718,0.0612 0.21362,-0.0412 0.30424,0 0.23067,0.0982 0.63189,0.39838 0.91364,0.51785 0.0907,0.0412 0.23244,-0.0612 0.30482,0 0.0353,0.0294 -0.0353,0.0988 0,0.12946 0.0718,0.0612 0.23244,-0.0612 0.30424,0 0.0353,0.0294 -0.0353,0.0988 0,0.12946 0.0589,0.0471 0.5149,0.0894 0.60911,0.12946 0.12829,0.0529 0.17596,0.2042 0.30483,0.25892 0.27305,0.11599 0.64071,0.27245 0.91364,0.38839 0.23127,0.0982 0.36721,0.31953 0.60907,0.38838 0.39014,0.11066 1.564,0.0353 1.675,0.12946 0.0353,0.0294 -0.0353,0.0989 0,0.12946 0.0718,0.0612 0.2136,-0.0412 0.30482,0 0.093,0.0412 0.40662,0.1736 0.45664,0.25892 0.0236,0.0412 -0.0353,0.0989 0,0.12948 0.0718,0.0612 0.23244,-0.0612 0.30424,0 0.0353,0.0294 -0.0353,0.0988 0,0.12946 0.12769,0.10829 0.7697,0.006 0.91364,0.12946 0.17242,0.14652 -0.35543,0.0412 0.15242,0.25892 0.12651,0.0529 0.51255,-0.0823 0.60905,0 0.0353,0.0294 -0.0353,0.0989 0,0.12946 0.0636,0.0529 0.36426,0.09 0.45665,0.12946 0.12828,0.0529 0.17594,0.2042 0.30482,0.25892 0.0471,0.0176 0.11649,-0.0294 0.15241,0 0.0353,0.0294 -0.0353,0.0989 0,0.12946 0.0883,0.0748 0.52079,0.18419 0.60906,0.25893 0.0353,0.0294 -0.0353,0.0989 0,0.12946 0.0701,0.06 0.36485,-0.0412 0.45664,0 0.0641,0.0294 0.0883,0.10234 0.15241,0.12946 0.0907,0.0412 0.23245,-0.0612 0.30424,0 0.0353,0.0294 -0.0353,0.0989 0,0.12946 0.0718,0.0612 0.23244,-0.0612 0.30483,0 0.0353,0.0294 -0.0353,0.0989 0,0.12946 0.0353,0.0294 0.11649,-0.0294 0.15241,0 0.0353,0.0294 -0.0353,0.0989 0,0.12946 0.0353,0.0294 0.10705,-0.0176 0.15241,0 0.26715,0.11364 0.48665,0.40134 0.76135,0.51786 0.0918,0.0412 0.38661,-0.06 0.45665,0 0.0353,0.0294 -0.0353,0.0989 0,0.12946 0.11066,0.0941 0.61117,0.002 0.76135,0.12946 0.0353,0.0294 -0.0353,0.0989 0,0.12946 0.0883,0.0748 0.52078,0.18359 0.60911,0.25892 0.0353,0.0294 -0.0353,0.0989 0,0.12946 0.0718,0.0612 0.23244,-0.0612 0.30482,0 0.0353,0.0294 -0.0353,0.0989 0,0.12946 0.0965,0.0823 0.48255,-0.0529 0.60906,0 0.2707,0.11475 0.49078,0.27364 0.76142,0.38839 0.0907,0.0412 0.23244,-0.0612 0.30422,0 0.0353,0.0294 -0.0353,0.0989 0,0.12946 0.10532,0.09 0.65585,0.0412 0.76141,0.12946 0.0353,0.0294 -0.0353,0.0989 0,0.12946 0.50785,0.43193 -0.20302,-0.43193 0.30483,0 0.0353,0.0294 -0.0353,0.0989 0,0.12946 0.0353,0.0294 0.10705,-0.0176 0.15241,0 0.30482,0.12946 0.45665,0.51785 0.76136,0.64737 0.0471,0.0176 0.1165,-0.0294 0.15241,0 0.0353,0.0294 -0.0353,0.0989 0,0.12946 0.0718,0.0612 0.23244,-0.0612 0.30483,0 0.23244,0.19773 -0.33603,0.12946 -0.15242,0.12946 0.10122,0 0.21361,-0.0412 0.30423,0 0.0471,0.0176 -0.0353,0.0989 0,0.12946 0.13771,0.11649 0.57964,0.18184 0.76135,0.25893 0.12828,0.0529 0.17595,0.20419 0.30482,0.25892 0.0471,0.0176 0.1165,-0.0294 0.15241,0 0.0353,0.0294 -0.0353,0.0989 0,0.12946 0.0718,0.0612 0.23245,-0.0612 0.30483,0 0.0353,0.0294 -0.0353,0.0989 0,0.12946 0.0718,0.0612 0.21361,-0.0412 0.30482,0 0.22185,0.0948 0.24362,0.20715 0.30424,0.25892 0.0718,0.0612 0.2136,-0.0412 0.30482,0 0.32424,0.13771 -0.0176,0.12122 0.30483,0.25892 0.0471,0.0176 0.11649,-0.0294 0.15241,0 0.0353,0.0294 -0.0353,0.0989 0,0.12948 0.0718,0.0612 0.2136,-0.0412 0.30482,0 0.17771,0.0753 0.27951,0.18359 0.45664,0.25892 0.0912,0.0412 0.23244,-0.0612 0.30482,0 0.0759,0.0647 0.0759,0.19419 0.15241,0.25892 0.07,0.0595 0.4896,0.20831 0.60913,0.25892 0.0907,0.0412 0.23244,-0.0612 0.30422,0 0.0353,0.0294 -0.0353,0.0989 0,0.12946 0.50785,0.43194 -0.20302,-0.43192 0.30483,0 0.0353,0.0294 -0.0353,0.0989 0,0.12946 0.0712,0.0612 0.23244,-0.0612 0.30482,0 0.0353,0.0294 -0.0353,0.0989 0,0.12946 0.0718,0.0612 0.23244,-0.0612 0.30482,0 0.0353,0.0294 -0.0353,0.0989 0,0.12947 0.0718,0.0612 0.21362,-0.0412 0.30424,0 0.12828,0.0529 0.17595,0.20419 0.30482,0.25892 0.15594,0.0659 0.90788,-0.12475 0.91365,-0.12946 0.0353,-0.0294 -0.0353,-0.0989 0,-0.12946 0.0718,-0.0612 0.23245,0.0612 0.30483,0 0.0353,-0.0294 -0.0353,-0.0989 0,-0.12947 0.0412,-0.0294 0.87604,-0.0294 0.91363,0 0.15242,0.12947 -0.15241,0.64731 0,0.77677 0.006,0.006 0.44842,0.25187 0.45665,0.25893 0.004,0.004 0.0982,0.34249 0.15242,0.38839 0.0765,0.0647 0.38073,-0.0647 0.45665,0 0.0765,0.0647 0.0765,0.19419 0.15241,0.25892 0.006,0.006 0.4484,0.25185 0.45664,0.25892 0.0353,0.0294 -0.0353,0.0989 0,0.12946 0.053,0.0412 0.40604,0.0864 0.45665,0.12946 0.0759,0.0647 0.0759,0.19419 0.15241,0.25892 0.50784,0.43194 -0.20361,-0.43192 0.30482,0 0.0765,0.0647 0.0765,0.19419 0.15241,0.25892 0.0718,0.0612 0.23245,-0.0612 0.30483,0 0.0353,0.0294 -0.0353,0.0989 0,0.12947 0.0718,0.0612 0.23244,-0.0612 0.30482,0 0.0353,0.0294 -0.0353,0.0989 0,0.12947 0.0712,0.0612 0.23244,-0.0612 0.30482,0 0.0353,0.0294 -0.0353,0.0988 0,0.12946 0.0529,0.0412 0.40604,0.0859 0.45665,0.12946 0.0353,0.0294 -0.0353,0.0988 0,0.12946 0.0718,0.0612 0.2136,-0.0412 0.30483,0 0.17771,0.0753 0.27951,0.18359 0.45663,0.25892 0.0907,0.0412 0.23245,-0.0612 0.30424,0 0.0765,0.0647 0.0765,0.19419 0.15241,0.25892 0.14889,0.12653 0.84474,0.29424 1.06589,0.38839 0.28187,0.1201 0.68255,0.41957 0.91364,0.51784 0.0907,0.0412 0.21361,-0.0412 0.30482,0 0.12829,0.0529 0.17596,0.2042 0.30424,0.25892 0.0471,0.0176 0.11649,-0.0294 0.15241,0 0.0353,0.0294 -0.0353,0.0989 0,0.12946 0.0718,0.0612 0.23244,-0.0612 0.30482,0 0.0353,0.0294 -0.0353,0.0989 0,0.12946 0.073,0.0624 0.5149,0.17891 0.60907,0.25894 0.0765,0.0647 0.0765,0.19419 0.15241,0.25892 0.0718,0.0612 0.23244,-0.0612 0.30482,0 0.0353,0.0294 -0.0353,0.0989 0,0.12946 0.17242,0.14652 0.89339,0.24185 1.06594,0.38838 0.0759,0.0647 0.0759,0.19419 0.15181,0.25892 0.0701,0.0595 0.4896,0.20832 0.60913,0.25893 0.0924,0.0412 0.38661,-0.06 0.45664,0 0.0353,0.0294 -0.0353,0.0989 0,0.12946 0.0718,0.0612 0.21361,-0.0412 0.30482,0 0.20596,0.0877 0.41134,0.17477 0.60906,0.25892 0.63372,0.26952 -0.163,-0.006 0.15241,0.25892 0.1001,0.0847 0.53256,0.0647 0.60906,0.12946 0.0353,0.0294 -0.0353,0.0989 0,0.12946 0.0718,0.0612 0.21362,-0.0412 0.30483,0 0.12828,0.053 0.17594,0.20421 0.30482,0.25894 0.0907,0.0412 0.21361,-0.0412 0.30423,0 0.24363,0.10358 0.36544,0.41427 0.60912,0.51784 0.12534,0.0529 0.2142,0.0529 0.30482,0.12946 0.0353,0.0294 -0.0353,0.0989 0,0.12946 0.0353,0.0294 0.1165,-0.0294 0.15242,0 0.0353,0.0294 -0.0353,0.0989 0,0.12946 0.0353,0.0294 0.11649,-0.0294 0.15181,0 0.0353,0.0294 -0.0353,0.0989 0,0.12946 0.0353,0.0294 0.1165,-0.0294 0.15241,0 0.0353,0.0294 -0.0353,0.0989 0,0.12946 0.0353,0.0294 0.1165,-0.0294 0.15241,0 0.0353,0.0294 -0.0353,0.0989 0,0.12947 0.11588,0.0982 0.60165,0.0612 0.76142,0.12946 0.22184,0.0948 0.24363,0.20714 0.30482,0.25892 0.0353,0.0294 0.11649,-0.0294 0.15241,0 0.0353,0.0294 -0.0353,0.0989 0,0.12946 0.0718,0.0612 0.23244,-0.0612 0.30482,0 0.0353,0.0294 -0.0353,0.0989 0,0.12947 0.006,0.0112 0.6891,0.35777 0.76136,0.38838 0.0907,0.0412 0.23245,-0.0612 0.30483,0 0.0353,0.0294 -0.0353,0.0988 0,0.12946 0.0718,0.0612 0.2136,-0.0412 0.30482,0 0.14711,0.0623 0.84714,0.33189 0.91359,0.38839 0.0606,0.0529 0.0823,0.16477 0.30482,0.25892 0.0907,0.0412 0.23244,-0.0612 0.30482,0 0.0353,0.0294 -0.0353,0.0989 0,0.12946 0.0718,0.0612 0.21361,-0.0412 0.30483,0 0.22185,0.0948 0.24362,0.20714 0.30422,0.25892 0.0529,0.0412 0.40604,0.0859 0.45665,0.12946 0.006,0.006 0.29659,0.38133 0.30483,0.3884 0.0718,0.0612 0.23244,-0.0612 0.30424,0 0.0353,0.0294 -0.0353,0.0988 0,0.12946 0.0529,0.0412 0.40603,0.0859 0.45663,0.12946 0.0353,0.0294 -0.0353,0.0988 0,0.12946 0.0718,0.0612 0.23245,-0.0612 0.30483,0 0.0765,0.0647 0.0765,0.19419 0.15241,0.25892 0.0718,0.0612 0.23244,-0.0612 0.30482,0 0.0765,0.0647 0.0765,0.19419 0.15241,0.25892 0.053,0.0412 0.40605,0.0859 0.45665,0.12946 0.0353,0.0294 -0.0353,0.0989 0,0.12946 0.0718,0.0612 0.23245,-0.0612 0.30423,0 0.0765,0.0647 0.0765,0.1942 0.15242,0.25893 0.0765,0.0647 0.38074,-0.0647 0.45664,0 0.0353,0.0294 -0.0235,0.0907 0,0.12946 0.0941,0.16006 0.58375,0.28776 0.7613,0.38838 0.36073,0.20479 0.87981,0.63301 1.21823,0.77683 0.09,0.0412 0.55845,0.21597 0.60906,0.25893 0.0353,0.0294 -0.0353,0.0989 0,0.12946 0.0529,0.0412 0.40604,0.0864 0.45665,0.12946 0.0353,0.0294 -0.0353,0.0989 0,0.12946 0.0353,0.0294 0.10706,-0.0176 0.15241,0 0.12828,0.0529 0.17595,0.2042 0.30423,0.25892 0.23715,0.1006 0.70198,0.20831 0.91365,0.38838 0.0353,0.0294 -0.0353,0.0989 0,0.12946 0.1,0.0847 0.53256,0.0647 0.60911,0.12948 0.0353,0.0294 -0.0353,0.0988 0,0.12946 0.14712,0.12533 0.7204,0.20418 0.91359,0.25892 0.20302,0.0589 0.41369,0.3054 0.60912,0.38838 0.0471,0.0176 0.11649,-0.0294 0.15241,0 0.0353,0.0294 -0.0353,0.0989 0,0.12946 0.0353,0.0294 0.10656,-0.0176 0.15241,0 0.0847,0.0353 0.56787,0.35367 0.60912,0.38839 0.0353,0.0294 -0.0353,0.0989 0,0.12946 0.0353,0.0294 0.11649,-0.0294 0.15241,0 0.053,0.0412 0.10122,0.34542 0.15241,0.38838 0.0712,0.0612 0.23244,-0.0612 0.30424,0 0.0765,0.0647 0.0765,0.19419 0.15241,0.25892 0.0765,0.0647 0.50901,0.0471 0.60911,0.12946 0.0353,0.0294 -0.0353,0.0989 0,0.12946 0.0353,0.0294 0.1165,-0.0294 0.15241,0 0.0353,0.0294 -0.0235,0.0907 0,0.12946 0.12059,0.20538 0.50843,0.30306 0.60913,0.3884 0.0353,0.0294 -0.0353,0.0989 0,0.12946 0.0718,0.0612 0.2136,-0.0412 0.30482,0 0.0724,0.0294 0.75181,0.38015 0.76129,0.38838 0.0353,0.0294 -0.0471,0.11004 0,0.12946 0.0912,0.0412 0.20831,-0.0294 0.30482,0 0.13593,0.0412 0.17595,0.2042 0.30482,0.25892 0.0471,0.0176 0.1165,-0.0294 0.15241,0 0.0765,0.0647 0.0765,0.1942 0.15242,0.25893 0.006,0.006 0.4484,0.25186 0.45665,0.25892 0.0353,0.0294 -0.0353,0.0989 0,0.12946 0.073,0.0624 0.51489,0.17889 0.60905,0.25892 0.0353,0.0294 -0.0353,0.0989 0,0.12947 0.0353,0.0294 0.11649,-0.0294 0.15241,0 0.006,0.006 0.29659,0.38132 0.30424,0.38839 0.0718,0.0612 0.23244,-0.0612 0.30482,0 0.0353,0.0294 -0.0353,0.0989 0,0.12946 0.0353,0.0294 0.11649,-0.0294 0.15241,0 0.13299,0.11302 0.0412,0.18418 0.30424,0.25892 0.29011,0.0823 0.90287,0.37014 1.06594,0.64736 0.0236,0.0412 -0.0353,0.0989 0,0.12946 0.0353,0.0294 0.11649,-0.0294 0.15241,0 0.0529,0.0412 0.10122,0.34544 0.15241,0.38838 0.0606,0.053 0.19361,0.07 0.30482,0.25894 0.0959,0.16359 -0.14594,0.65254 0,0.77682 0.0353,0.0294 0.1165,-0.0294 0.15241,0 0.0718,0.0612 0,0.17242 0,0.25892 0,0.16477 0.12296,0.93089 0,1.03576 -0.0353,0.0294 -0.11649,-0.0294 -0.15241,0 -0.0353,0.0294 0.0353,0.0989 0,0.12946 -0.0353,0.0294 -0.11649,-0.0294 -0.15241,0 -0.0353,0.0294 0.0235,0.0907 0,0.12946 -0.006,0.0176 -0.69786,0.49078 -0.76135,0.51784 -0.2601,0.11066 -1.13008,0.053 -1.21817,0.12946 -0.0765,0.0647 -0.0765,0.19421 -0.15241,0.25894 -0.17773,0.15123 -0.88817,-0.15125 -1.06583,0 -0.0353,0.0294 0.0353,0.0988 0,0.12946 -0.0718,0.0612 -0.23244,-0.0612 -0.30482,0 -0.0353,0.0294 0.0353,0.0988 0,0.12946 -0.0718,0.0612 -0.23244,-0.0612 -0.30482,0 -0.0353,0.0294 0.0353,0.0988 0,0.12946 -0.0412,0.0353 -0.39427,0 -0.45665,0 -0.40605,0 -1.31981,0.15123 -1.675,0 -0.22185,-0.0948 -0.24362,-0.20715 -0.30423,-0.25892 -0.0353,-0.0294 -0.11649,0.0294 -0.15241,0 -0.0353,-0.0294 0.0353,-0.0989 0,-0.12946 -0.0718,-0.0612 -0.23244,0.0612 -0.30482,0 -0.0353,-0.0294 0.0353,-0.0989 0,-0.12947 -0.0718,-0.0612 -0.21362,0.0412 -0.30424,0 -0.0641,-0.0294 -0.0877,-0.10233 -0.15242,-0.12947 -0.19537,-0.083 -1.32033,-0.0412 -1.37041,0 -0.0353,0.0294 0.0353,0.0989 0,0.12947 -0.23068,0.19654 -1.1851,-0.0959 -1.52276,0 -0.20302,0.0589 -0.41369,0.17595 -0.60906,0.25893 -0.0912,0.0412 -0.23243,-0.0612 -0.30482,0 -0.0353,0.0294 0.0353,0.0988 0,0.12946 -0.0701,0.06 -0.36485,-0.0412 -0.45664,0 -0.0641,0.0294 -0.0877,0.10233 -0.15241,0.12946 -0.19537,0.083 -1.32034,0.0412 -1.37048,0 -0.0353,-0.0294 0.0353,-0.0989 0,-0.12946 -0.0718,-0.0612 -0.23244,0.0612 -0.30422,0 -0.0353,-0.0294 0.0353,-0.0989 0,-0.12946 -0.0718,-0.0612 -0.21362,0.0412 -0.30483,0 -0.12829,-0.053 -0.17596,-0.20421 -0.30482,-0.25893 -0.0907,-0.0412 -0.21361,0.0412 -0.30482,0 -0.27011,-0.11475 -0.49078,-0.27363 -0.7613,-0.38839 -0.26539,-0.11302 -1.68747,0.11886 -1.82729,0 -0.0353,-0.0294 0.0353,-0.0989 0,-0.12946 -0.14594,-0.12419 -0.72139,0.0819 -0.91365,0 -0.0641,-0.0294 -0.0877,-0.10234 -0.15241,-0.12946 -0.51726,-0.22008 -1.91926,0.22009 -2.43628,0 -0.57082,-0.24244 -1.39384,-0.0112 -1.67507,-0.12946 -0.31482,-0.13417 -0.52843,-0.12946 -0.91358,-0.12946 -0.41604,0 -1.16916,0.15005 -1.5227,0 -0.30364,-0.12888 -0.61012,-0.13006 -0.91365,-0.25892 -0.0912,-0.0412 -0.23244,0.0612 -0.30482,0 -0.0353,-0.0294 0.0353,-0.0989 0,-0.12946 -0.0529,-0.0412 -0.40605,-0.0866 -0.45665,-0.12947 -0.0353,-0.0294 0.0353,-0.0989 0,-0.12946 -0.0718,-0.0612 -0.23245,0.0612 -0.30483,0 -0.0353,-0.0294 0.0353,-0.0989 0,-0.12946 -0.0294,-0.0294 -0.73051,-0.0294 -0.76135,0 -0.12121,0.10357 0.0795,0.51137 0,0.64736 -0.10184,0.1736 -0.36308,0.17949 -0.45664,0.25893 -0.0765,0.0647 -0.0765,0.19419 -0.15241,0.25892 -0.0712,0.0612 -0.21361,-0.0412 -0.30424,0 -0.0641,0.0294 -0.0883,0.10234 -0.15241,0.12946 -0.24303,0.10358 -1.54706,-0.10891 -1.675,0 -0.0353,0.0294 0.0353,0.0989 0,0.12946 -0.0176,0.0112 -1.51317,0 -1.67493,0 -0.86633,0 -2.15766,0.18302 -2.89324,-0.12946 -0.0912,-0.0412 -0.23244,0.0612 -0.30482,0 -0.0353,-0.0294 0.0353,-0.0989 0,-0.12946 -0.0765,-0.0647 -0.38073,0.0647 -0.45664,0 -0.0353,-0.0294 0.0353,-0.0989 0,-0.12946 -0.0965,-0.0823 -0.48254,0.0529 -0.60912,0 -0.26187,-0.11128 -0.4996,-0.1477 -0.76135,-0.25892 -0.19243,-0.0818 -0.76747,0.1242 -0.91365,0 -0.0353,-0.0294 0.0353,-0.0989 0,-0.12947 -0.15241,-0.12946 -0.76135,0.12947 -0.91364,0 -0.0353,-0.0294 0.0353,-0.0989 0,-0.12946 -0.19126,-0.16301 -1.03952,0.0236 -1.21817,-0.12946 -0.0353,-0.0294 0.0353,-0.0989 0,-0.12946 -0.22833,-0.19419 -1.14203,0.19419 -1.37041,0 -0.0353,-0.0294 0.0353,-0.0989 0,-0.12946 -0.0718,-0.0612 -0.23245,0.0612 -0.30483,0 -0.0353,-0.0294 0.0353,-0.0989 0,-0.12946 -0.0718,-0.0612 -0.23244,0.0612 -0.30424,0 -0.0353,-0.0294 0.0353,-0.0989 0,-0.12946 -0.17889,-0.15183 -1.02674,0.0353 -1.21823,-0.12946 -0.0353,-0.0294 0.0353,-0.0989 0,-0.12946 -0.0718,-0.0612 -0.23244,0.0612 -0.30423,0 -0.0353,-0.0294 0.0353,-0.0989 0,-0.12946 -0.0918,-0.0778 -0.60064,-0.0612 -0.76141,-0.12948 -0.2195,-0.0935 -0.38956,-0.16535 -0.60906,-0.25892 -0.0907,-0.0412 -0.21362,0.0412 -0.30483,0 -0.17771,-0.0753 -0.27951,-0.18359 -0.45663,-0.25892 -0.0913,-0.0412 -0.23245,0.0612 -0.30483,0 -0.0353,-0.0294 0.0353,-0.0989 0,-0.12946 -0.12357,-0.10469 -1.43915,0.1006 -1.675,0 -0.24363,-0.10358 -0.36544,-0.41427 -0.60912,-0.51784 -0.0912,-0.0412 -0.23244,0.0612 -0.30482,0 -0.0612,-0.0529 -0.0823,-0.16477 -0.30423,-0.25893 -0.0913,-0.0412 -0.23244,0.0612 -0.30482,0 -0.0353,-0.0294 0.0353,-0.0989 0,-0.12946 -0.0765,-0.0647 -0.38075,0.0647 -0.45665,0 -0.0353,-0.0294 0.0353,-0.0989 0,-0.12946 -0.0718,-0.0612 -0.23245,0.0612 -0.30483,0 -0.0353,-0.0294 0.0353,-0.0989 0,-0.12946 -0.0718,-0.0612 -0.21361,0.0412 -0.30424,0 -0.0641,-0.0294 -0.0883,-0.10234 -0.15241,-0.12946 -0.12183,-0.0529 -0.33542,0.0529 -0.45664,0 -0.0641,-0.0294 -0.0877,-0.10234 -0.15241,-0.12946 -0.12653,-0.053 -0.51255,0.0823 -0.60906,0 -0.0353,-0.0294 0.0353,-0.0989 0,-0.12946 -0.0965,-0.0823 -0.48253,0.0529 -0.60911,0 -0.45901,-0.19537 -0.97891,-0.36367 -1.52271,-0.51786 -0.0859,-0.0235 -0.39545,0.053 -0.45664,0 -0.0353,-0.0294 0.0353,-0.0989 0,-0.12946 -0.10122,-0.0866 -0.50726,0.0859 -0.60912,0 -0.0353,-0.0294 0.0353,-0.0989 0,-0.12946 -0.0294,-0.0294 -1.09095,-0.0236 -1.21818,-0.12946 -0.0353,-0.0294 0.0353,-0.0989 0,-0.12946 -0.14594,-0.12419 -0.72133,0.0818 -0.91365,0 -0.0641,-0.0294 -0.10122,-0.0859 -0.15241,-0.12946 -0.10122,0 -0.2136,0.0412 -0.30482,0 -0.0471,-0.0176 0.0353,-0.0989 0,-0.12946 -0.0718,-0.0612 -0.23244,0.0612 -0.30483,0 -0.0353,-0.0294 0.0353,-0.0989 0,-0.12946 -0.0718,-0.0612 -0.23244,0.0612 -0.30422,0 -0.31483,-0.26775 0.48136,0.0112 -0.15241,-0.25892 -0.22127,-0.0941 -0.91671,-0.26128 -1.06594,-0.38839 -0.0353,-0.0294 0.0353,-0.0989 0,-0.12946 -0.0765,-0.0647 -0.38074,0.0647 -0.45665,0 -0.0353,-0.0294 0.0353,-0.0989 0,-0.12947 -0.0718,-0.0612 -0.23244,0.0612 -0.30482,0 -0.0353,-0.0294 0.0353,-0.0988 0,-0.12946 -0.0718,-0.0612 -0.23245,0.0612 -0.30424,0 -0.0612,-0.0529 -0.0823,-0.16476 -0.30483,-0.25892 -0.0907,-0.0412 -0.23244,0.0612 -0.30482,0 -0.0353,-0.0294 0.0353,-0.0988 0,-0.12946 -0.0718,-0.0612 -0.2136,0.0412 -0.30482,0 -0.63372,-0.26951 0.163,0.006 -0.15241,-0.25893 -0.0353,-0.0294 -0.1165,0.0294 -0.15241,0 -0.0353,-0.0294 0.0353,-0.0989 0,-0.12946 -0.0353,-0.0294 -0.10656,0.0176 -0.15242,0 -0.12828,-0.0529 -0.17594,-0.20419 -0.30482,-0.25892 -0.0941,-0.0412 -0.55257,-0.0818 -0.60905,-0.12946 -0.0353,-0.0294 0.0353,-0.0989 0,-0.12946 -0.0718,-0.0612 -0.23244,0.0612 -0.30424,0 -0.0353,-0.0294 0.0353,-0.0989 0,-0.12946 -0.0718,-0.0612 -0.23244,0.0612 -0.30482,0 -0.0353,-0.0294 0.0353,-0.0989 0,-0.12946 -0.0718,-0.0612 -0.23244,0.0612 -0.30482,0 -0.0353,-0.0294 0.0353,-0.0989 0,-0.12946 -0.0718,-0.0612 -0.21362,0.0412 -0.30483,0 -0.0641,-0.0294 -0.0883,-0.10234 -0.15241,-0.12946 -0.22421,-0.0954 -0.89517,0.14534 -1.06593,0 -0.0353,-0.0294 0.0353,-0.0989 0,-0.12948 -0.0718,-0.0612 -0.23245,0.0612 -0.30424,0 -0.0353,-0.0294 0.0353,-0.0988 0,-0.12946 -0.0294,-0.0235 -1.02616,-0.29246 -1.06594,-0.25892 -0.0677,0.0589 0.11823,0.2448 -0.15241,0.12946 -0.20715,-0.0877 -0.40192,-0.30011 -0.60913,-0.38838 -0.1471,-0.063 -0.28892,0.006 -0.60905,-0.12946 -0.28423,-0.12059 -0.78165,0.1206 -1.06588,0 -0.15418,-0.0653 -1.17563,-0.48195 -1.21824,-0.51785 -0.0353,-0.0294 0.0353,-0.0989 0,-0.12946 -0.0529,-0.0412 -0.40603,-0.0859 -0.45664,-0.12946 -0.0765,-0.0647 -0.0765,-0.19419 -0.15241,-0.25892 -0.15653,-0.13359 -0.90894,0.004 -1.06594,-0.12946 -0.0353,-0.0294 0.0353,-0.0989 0,-0.12946 -0.0294,-0.0294 -0.7304,-0.0294 -0.76129,0 -0.0353,0.0294 0.0353,0.0989 0,0.12946 -0.0718,0.0612 -0.23245,-0.0612 -0.30483,0 -0.0353,0.0294 0.0353,0.0989 0,0.12946 -0.0718,0.0612 -0.23244,-0.0612 -0.30482,0 -0.0353,0.0294 0.0353,0.0989 0,0.12946 -0.0353,0.0294 -0.10184,0 -0.15241,0 -0.38309,0 -1.01327,0.10122 -1.37046,0 -0.0683,-0.0176 -0.0877,-0.10234 -0.15241,-0.12946 -0.12358,-0.0529 -1.65052,-0.20479 -1.82724,-0.12946 -0.17772,0.0753 -0.27953,0.18359 -0.45665,0.25892 -0.16477,0.07 -1.2004,0.0353 -1.5227,0.12946 -0.308952,0.0877 -0.638662,0.31071 -0.913592,0.38839 -0.14418,0.0412 -0.34896,-0.0913 -0.45665,0 -0.0353,0.0294 0.0353,0.0989 0,0.12946 -0.15241,0.12946 -0.76135,-0.12946 -0.91359,0 -0.0353,0.0294 0.0353,0.0989 0,0.12946 -0.163,0.13829 -2.1214,-0.13829 -2.28411,0 -0.0353,0.0294 0.0353,0.0989 0,0.12946 -0.15593,0.13299 -0.70485,-0.0889 -0.91358,0 -0.34661,0.14711 -0.52315,0.0471 -0.91365,0.12946 -0.67984,0.14476 -1.26896,0.25892 -1.97953,0.25892 -0.17712,0 -1.808864,0.0112 -1.827282,0 -0.03527,-0.0294 0.03527,-0.0989 0,-0.12946 -0.07005,-0.06 -0.364846,0.0412 -0.456651,0 -0.291285,-0.12357 -1.25619,-0.43722 -1.674936,-0.25892 -0.237149,0.10122 -0.917301,0.26187 -1.065937,0.38838 -0.06123,0.0529 -0.08234,0.16477 -0.304239,0.25892 -0.121835,0.053 -0.335424,-0.0529 -0.45665,0 -1.50104,0.63814 -4.426702,0.3884 -6.243158,0.3884 -0.127697,0 -1.525419,-0.25658 -1.674999,-0.12946 -0.03527,0.0294 0.03527,0.0989 0,0.12946 -0.0037,0.004 -0.403098,0.0836 -0.45665,0.12946 -0.03527,0.0294 0.03527,0.0989 0,0.12946 -0.121214,0.10358 -0.601586,-0.0683 -0.761288,0 -1.145209,0.48665 -2.906064,0.25892 -4.263646,0.25892 -0.193011,0 -1.945209,0.0294 -1.979586,0 -0.03527,-0.0294 0.03527,-0.0989 0,-0.12946 -0.0765,-0.0647 -0.64206,0 -0.761287,0 -1.573482,0 -3.146977,0 -4.720409,0 -0.313057,0 -0.353072,-0.0235 -0.609112,-0.12946 -0.198314,-0.0842 -0.907402,0.13475 -1.065936,0 -0.03527,-0.0294 0.03527,-0.0989 0,-0.12946 -0.147121,-0.12476 -1.722727,-0.0236 -1.979524,-0.12946 -0.725345,-0.30836 -2.182022,-0.51786 -3.19771,-0.51786 -0.352489,0 -0.363666,-0.17947 -0.456638,-0.25892 -0.07178,-0.0612 -0.213615,0.0412 -0.304823,0 -0.221849,-0.0941 -0.243632,-0.20714 -0.304239,-0.25892 -0.03527,-0.0294 -0.152412,0.0412 -0.152412,0 0,-0.22008 0.10184,-0.43134 0.152412,-0.64736 z"
       id="path4759" />
  </g>
</svg>
